<?xml version="1.0" standalone="no"?>
<!DOCTYPE svg PUBLIC "-//W3C//DTD SVG 1.1//EN" "http://www.w3.org/Graphics/SVG/1.1/DTD/svg11.dtd" >
<svg>
<metadata>
Created by FontForge 20120731 at Sat Jun 29 13:47:36 2019
 By www
Copyright (c) 2012 by Mariya Chughtai. All rights reserved.
</metadata>
<defs>
<font id="BaufraW01-Light" horiz-adv-x="878" >
  <font-face 
    font-family="BaufraW01-Light"
    font-weight="300"
    font-stretch="normal"
    units-per-em="1000"
    panose-1="1 0 0 0 0 0 0 0 0 0"
    ascent="800"
    descent="-200"
    x-height="500"
    cap-height="700"
    bbox="-8 -207 1078.87 929"
    underline-thickness="50"
    underline-position="-125"
    unicode-range="U+0020-2122"
  />
<missing-glyph horiz-adv-x="250" 
 />
    <glyph glyph-name=".notdef" horiz-adv-x="250" 
 />
    <glyph glyph-name=".null" horiz-adv-x="0" 
 />
    <glyph glyph-name="nonmarkingreturn" horiz-adv-x="333" 
 />
    <glyph glyph-name="space" unicode=" " horiz-adv-x="450" 
 />
    <glyph glyph-name="exclam" unicode="!" horiz-adv-x="142" 
d="M81 701v-561h-20v561h20zM71 -10q-9 0 -15 6t-6 15t6 15t15 6t15 -6t6 -15t-6 -15t-15 -6z" />
    <glyph glyph-name="quotedbl" unicode="&#x22;" horiz-adv-x="225" 
d="M72 709q9 0 15 -6t6 -15q0 -6 -2 -13t-6.5 -14t-13 -11.5t-21.5 -4.5q8 6 12.5 12t6.5 11q-17 3 -17 20q0 9 6 15t15 6h-1zM153 709q9 0 15 -6t6 -15q0 -6 -2 -13t-6.5 -14t-13 -11.5t-21.5 -4.5q8 6 12.5 12t6.5 11q-17 3 -17 20q0 9 6 15t15 6h-1z" />
    <glyph glyph-name="numbersign" unicode="#" horiz-adv-x="663" 
d="M449 421l-37 -173h160l-4 -19h-160l-50 -233h-20l50 234h-165l-50 -233h-20l50 234h-154l4 19h154l37 173h-154l4 19h154l54 256h20l-54 -255h165l54 256h20l-54 -255h160l-4 -19zM429 421h-165l-37 -173h165z" />
    <glyph glyph-name="dollar" unicode="$" horiz-adv-x="499" 
d="M250 749v-43q19 0 40 -2.5t40.5 -7t36.5 -12t28 -17.5l-15 -15q-10 9 -25 15t-33 10t-36.5 6t-35.5 2v-313l7 -2q54 -15 90.5 -34t59 -44.5t32 -57.5t9.5 -72q0 -39 -15 -70.5t-41.5 -53.5t-62.5 -34.5t-78 -14.5v-45h-20v45q-20 0 -45 4t-49.5 11.5t-46 20t-34.5 29.5
l15 15q12 -15 32 -26t42.5 -18t45.5 -10.5t41 -3.5v347l-11 3q-87 26 -129 69t-42 101q0 51 18.5 84t46 53t59.5 28t58 10v44zM230 684q-22 -2 -50 -9.5t-52.5 -25t-41.5 -46.5t-17 -73q0 -105 161 -153v307zM250 10q37 2 69.5 14t56.5 31.5t37.5 46t13.5 59.5q0 37 -9 66
t-29.5 52t-54.5 40.5t-84 31.5v-341z" />
    <glyph glyph-name="percent" unicode="%" horiz-adv-x="704" 
d="M194 709q28 0 53 -10.5t43.5 -29t29 -43.5t10.5 -53t-10.5 -53t-29 -43.5t-43.5 -29t-53 -10.5t-53 10.5t-43.5 29t-29 43.5t-10.5 53t10.5 53t29 43.5t43.5 29t53 10.5zM580 700l-435 -700h-24l435 700h24zM192 686q-51 0 -83 -32t-32 -83q0 -25 8.5 -46.5t24 -37
t36.5 -24t47 -8.5q51 0 83.5 33t32.5 84t-32 83.5t-83 32.5zM504 261q28 0 53 -10.5t43.5 -29t29 -43.5t10.5 -53t-10.5 -53t-29 -43.5t-43.5 -29t-53 -10.5t-53 10.5t-43.5 29t-29 43.5t-10.5 53t10.5 53t29 43.5t43.5 29t53 10.5zM502 238q-51 0 -83 -32t-32 -83
q0 -25 8.5 -46.5t24 -37t36.5 -24t47 -8.5q51 0 83.5 33t32.5 84t-32 83.5t-83 32.5z" />
    <glyph glyph-name="ampersand" unicode="&#x26;" horiz-adv-x="666" 
d="M590 -1l-83 98q-29 -44 -83.5 -74t-131.5 -33q-55 1 -100 18.5t-76.5 45t-48.5 62.5t-17 71q0 46 15.5 80.5t41.5 61t60 47t72 39.5q-33 38 -51.5 66.5t-27.5 50t-11.5 37.5t-2.5 31q0 46 42 77t120 32q33 0 60.5 -8.5t47 -24t30.5 -37.5t11 -48q0 -16 -4.5 -34
t-23 -40.5t-56 -49t-103.5 -58.5l234 -277q11 28 11 56h20q0 -35 -17 -71l99 -117zM164 600q0 -14 2 -29t11 -35t27.5 -47t50.5 -65q64 31 100 55.5t54 44.5t22 36t4 30q0 44 -34.5 71t-94.5 27q-69 -1 -105.5 -27t-36.5 -61zM250 400q-38 -19 -71 -38.5t-58 -43.5
t-39 -55.5t-14 -74.5q0 -33 15.5 -64.5t44 -56.5t70 -40.5t93.5 -16.5q75 3 126.5 31.5t76.5 70.5z" />
    <glyph glyph-name="quotesingle" unicode="'" horiz-adv-x="143" 
d="M72 708q9 0 15 -6t6 -15q0 -6 -2 -13t-6.5 -14t-13 -11.5t-21.5 -4.5q8 6 12.5 12t6.5 11q-17 3 -17 20q0 9 6 15t15 6h-1z" />
    <glyph glyph-name="parenleft" unicode="(" horiz-adv-x="344" 
d="M288 -142q-41 15 -83 53.5t-76 95.5t-56 130.5t-22 159.5q0 85 22 159.5t56 132.5t76 96t83 51l6 -19q-38 -12 -77.5 -48t-72 -91t-53.5 -126.5t-21 -153.5t21 -152.5t53.5 -125t72.5 -91t78 -50.5z" />
    <glyph glyph-name="parenright" unicode=")" horiz-adv-x="344" 
d="M57 739q40 -13 82.5 -51t76.5 -96t56 -132.5t22 -159.5q0 -86 -22 -159.5t-56 -130.5t-76.5 -95.5t-82.5 -53.5l-7 19q38 14 78 50.5t72.5 91t53.5 125t21 152.5t-21 153.5t-53.5 126.5t-72.5 91t-77 48z" />
    <glyph glyph-name="asterisk" unicode="*" horiz-adv-x="391" 
d="M212 561l80 -110l-16 -12l-80 110l-80 -110l-16 12l80 110l-130 42l6 19l130 -42v136h20v-136l130 42l6 -19z" />
    <glyph glyph-name="plus" unicode="+" horiz-adv-x="514" 
d="M267 519v-197h197v-20h-197v-197h-20v197h-197v20h197v197h20z" />
    <glyph glyph-name="comma" unicode="," horiz-adv-x="143" 
d="M73 31q9 0 15 -6t6 -15q0 -6 -2 -13t-6.5 -14t-13 -11.5t-21.5 -4.5q8 6 12 11.5t6 10.5q-17 3 -17 21q0 9 6 15t15 6z" />
    <glyph glyph-name="hyphen" unicode="-" horiz-adv-x="348" 
d="M298 279v-20h-248v20h248z" />
    <glyph glyph-name="period" unicode="." horiz-adv-x="142" 
d="M71 -10q-9 0 -15 6t-6 15t6 15t15 6t15 -6t6 -15t-6 -15t-15 -6z" />
    <glyph glyph-name="slash" unicode="/" horiz-adv-x="435" 
d="M365 700h20l-315 -700h-20z" />
    <glyph glyph-name="zero" unicode="0" horiz-adv-x="667" 
d="M333 669q57 0 104 -28t80.5 -75t51.5 -108t18 -128t-18 -128t-51.5 -108t-80.5 -75t-104 -28t-104 28t-80 75t-51 108t-18 128t18 128t51 108t80 75t104 28zM333 649q-54 0 -97 -26t-73 -70.5t-46.5 -102t-16.5 -120.5t16.5 -120.5t46.5 -102t73 -70.5t97 -26t97 26
t73.5 70.5t47 102t16.5 120.5t-16.5 120.5t-47 102t-73.5 70.5t-97 26z" />
    <glyph glyph-name="one" unicode="1" horiz-adv-x="200" 
d="M90 660h20v-660h-20v660z" />
    <glyph glyph-name="two" unicode="2" horiz-adv-x="555" 
d="M69 595q44 35 98.5 55t114.5 20q41 0 76.5 -11t61.5 -33t41.5 -53.5t15.5 -72.5q0 -39 -15.5 -64.5t-41.5 -43.5t-59 -31.5t-69 -28.5q-39 -17 -78 -38.5t-70 -57t-51.5 -87.5t-22.5 -130h410v-20h-430v20q0 83 21 139t54.5 93.5t75 60.5t82.5 40q34 14 65.5 27t55.5 29
t38.5 38t14.5 54q0 36 -13.5 63.5t-36.5 46.5t-55 28.5t-69 9.5q-59 0 -108.5 -18t-90.5 -50z" />
    <glyph glyph-name="three" unicode="3" horiz-adv-x="548" 
d="M50 594q44 35 98.5 55t114.5 20q40 0 76 -11t62 -33t41.5 -53.5t15.5 -71.5q0 -62 -33 -102t-87 -57q60 -16 97 -60.5t37 -110.5q0 -44 -16 -77.5t-44 -56t-67 -34.5t-84 -12q-60 0 -114 20t-98 55l16 15q41 -32 91.5 -50t106.5 -18q42 0 77 10t59.5 30.5t38.5 50
t14 67.5q0 36 -13.5 65t-37 50t-55 32.5t-67.5 11.5l-112 1v20l98 2q36 0 68 10t55 28.5t36.5 46.5t13.5 64t-13.5 64t-37 46.5t-55 28.5t-67.5 10q-59 0 -108.5 -18t-90.5 -50z" />
    <glyph glyph-name="four" unicode="4" horiz-adv-x="519" 
d="M459 186h-48v-187h-20v188h-351v20l349 452h22v-452h48v-21zM391 628l-325 -422h325v422z" />
    <glyph glyph-name="five" unicode="5" horiz-adv-x="543" 
d="M83 381v279h353v-20h-332v-239h157q58 0 98 -20t64 -51t34.5 -69t10.5 -75q0 -41 -16 -76.5t-43.5 -62t-66 -41t-83.5 -14.5q-59 0 -113.5 19.5t-96.5 52.5l12 16q41 -32 91.5 -50t106.5 -18q42 0 77 12.5t59.5 35.5t38.5 55t14 70q0 35 -9.5 70t-31 63t-58 45.5
t-90.5 17.5h-176z" />
    <glyph glyph-name="six" unicode="6" horiz-adv-x="553" 
d="M437 648q-65 0 -120.5 -18t-102.5 -52q-62 -45 -99.5 -114.5t-42.5 -157.5q11 29 29.5 54t44 44t58.5 29.5t73 10.5q55 0 96 -19.5t68.5 -51t41 -72.5t13.5 -83t-13.5 -83t-41 -72.5t-68.5 -51t-96 -19.5q-48 0 -86.5 18t-66.5 48.5t-45.5 71.5t-23.5 88
q-17 122 24.5 219.5t122.5 157.5q49 35 108.5 54.5t127.5 19.5zM275 425q-50 0 -87.5 -17.5t-63 -46t-38 -66t-12.5 -76.5q6 -44 22.5 -81.5t42 -65.5t60 -44t77.5 -16q50 0 87.5 17.5t62 46t37 66t12.5 76.5t-12.5 76.5t-37 66t-62 46t-87.5 17.5z" />
    <glyph glyph-name="seven" unicode="7" horiz-adv-x="472" 
d="M422 660l-296 -660h-20l287 640h-343v20h372z" />
    <glyph glyph-name="eight" unicode="8" horiz-adv-x="573" 
d="M286 672q13 0 32.5 -2t41.5 -8.5t44.5 -18.5t40 -31t28.5 -46t11 -64q0 -62 -33 -102t-87 -57q60 -16 97 -60.5t37 -110.5q0 -44 -16 -77.5t-44.5 -56t-67.5 -34.5t-85 -12q-45 0 -84 12t-67 34.5t-44 56t-16 77.5q0 66 37 110.5t97 60.5q-54 17 -87 57t-33 102
q0 53 22.5 86.5t54 52t65.5 24.5t56 6v1zM286 650q-23 0 -53.5 -6t-58.5 -22t-47 -45.5t-19 -75.5q0 -36 13.5 -63.5t37.5 -46t56.5 -28.5t70.5 -11q38 1 70.5 10.5t56.5 28.5t37.5 46.5t13.5 63.5q0 72 -48.5 109.5t-129.5 40.5v-1zM288 329q-93 -1 -143.5 -44t-50.5 -115
q0 -51 21 -82.5t51 -48.5t62.5 -22.5t56.5 -5.5q26 0 59 6t62.5 23t50 48t20.5 81q0 74 -51.5 116t-137.5 44z" />
    <glyph glyph-name="nine" unicode="9" horiz-adv-x="595" 
d="M134 11q65 0 120.5 18t102.5 53q62 45 99.5 114.5t42.5 157.5q-11 -29 -29.5 -54t-44 -44t-58.5 -29.5t-73 -10.5q-55 0 -96 19.5t-68.5 51t-41 72.5t-13.5 83t13.5 83t41 72.5t68.5 51t96 19.5q48 0 86.5 -18t66.5 -48.5t45.5 -72t23.5 -87.5q17 -122 -24.5 -219
t-122.5 -157q-49 -35 -108.5 -54.5t-127.5 -19.5zM296 647q-50 0 -87.5 -17.5t-62 -46t-37 -66t-12.5 -76.5t12.5 -76.5t37 -66t62 -46t87.5 -17.5t87.5 17.5t63 46t38 66t12.5 76.5q-6 43 -22.5 81t-42 66t-60 44t-77.5 16z" />
    <glyph glyph-name="colon" unicode=":" horiz-adv-x="142" 
d="M71 316q9 0 15 -6t6 -15t-6 -15t-15 -6t-15 6t-6 15t6 15t15 6zM71 33q9 0 15 -6t6 -15t-6 -15t-15 -6t-15 6t-6 15t6 15t15 6z" />
    <glyph glyph-name="semicolon" unicode=";" horiz-adv-x="143" 
d="M72 314q9 0 15 -6t6 -15t-6 -15t-15 -6t-15 6t-6 15t6 15t15 6zM73 33q9 0 15 -6t6 -15q0 -6 -2 -13t-6.5 -14t-13 -11.5t-21.5 -4.5q8 6 12 11.5t6 10.5q-17 3 -17 20q0 9 6 15t15 6v1z" />
    <glyph glyph-name="less" unicode="&#x3c;" horiz-adv-x="430" 
d="M360 544v-25l-271 -178l271 -177v-25l-290 190v25z" />
    <glyph glyph-name="equal" unicode="=" horiz-adv-x="514" 
d="M464 437v-20h-414v20h414zM464 291v-20h-414v20h414z" />
    <glyph glyph-name="greater" unicode="&#x3e;" horiz-adv-x="390" 
d="M50 544l290 -190v-25l-290 -190v25l271 177l-271 178v25z" />
    <glyph glyph-name="question" unicode="?" horiz-adv-x="508" 
d="M49 634q44 35 98.5 55t114.5 20q74 0 126 -35q32 -22 51 -56t19 -79q0 -38 -12.5 -61.5t-32 -39.5t-44.5 -26.5t-50 -20.5q-23 -9 -44 -20.5t-37 -29t-26 -42.5t-10 -62h-22q0 42 11.5 70t30.5 47t43 31.5t49 22.5q23 10 45 20t39.5 24t28 34.5t10.5 51.5q0 39 -16 68
t-43 48q-46 32 -114 32q-59 0 -108.5 -18t-90.5 -50zM192 31q9 0 15 -6t6 -15t-6 -15t-15 -6t-15 6t-6 15t6 15t15 6z" />
    <glyph glyph-name="at" unicode="@" horiz-adv-x="856" 
d="M514 -95q-23 -3 -46 -4t-47 -1q-104 0 -169.5 30t-103 80.5t-51.5 117.5t-14 141t14 140.5t52.5 116.5t106 79t175.5 29q115 0 184 -29t105.5 -79t48 -116.5t11.5 -141.5v-149q0 -44 -30.5 -73t-82.5 -29q-48 0 -79.5 25.5t-36.5 64.5q-25 -17 -57.5 -27.5t-66.5 -10.5
q-43 0 -78 15t-60.5 42t-39.5 65.5t-14 85.5q0 49 14 88t39 65.5t60.5 40.5t77.5 14q37 0 64.5 -7.5t59.5 -26.5v27h20v-362q0 -37 25.5 -59t70.5 -22t68.5 22t23.5 59v149q0 71 -10.5 134t-45 110t-99.5 74t-174 27q-104 0 -168 -27.5t-99.5 -74.5t-48 -110t-12.5 -133
q0 -71 12 -134t46.5 -111t97 -76t162.5 -28q20 0 38.5 0.5t36.5 2.5zM552 433q-22 17 -55.5 25.5t-68.5 8.5q-78 0 -125 -48t-47 -140q0 -88 46.5 -138t124.5 -50q33 0 69 11.5t55 28.5z" />
    <glyph glyph-name="A" unicode="A" horiz-adv-x="733" 
d="M381 700l313 -700h-22l-115 256h-380l-115 -256h-22l313 700h28zM367 680l-181 -404h362z" />
    <glyph glyph-name="B" unicode="B" horiz-adv-x="628" 
d="M331 701q43 0 81 -11.5t66 -34t44.5 -55t16.5 -74.5q0 -61 -33 -102t-87 -59q33 -7 61.5 -23t49.5 -39t32.5 -53t11.5 -65q0 -42 -16.5 -76t-44.5 -58.5t-66 -37.5t-81 -13h-256v700zM333 371q40 0 73.5 10t58.5 30t39 48.5t14 66.5q0 37 -14.5 66t-39.5 49t-58.5 30
t-72.5 10h-203v-310h203zM369 21q39 0 72.5 11.5t58.5 33.5t39.5 52t14.5 68q0 37 -14.5 67.5t-39.5 52.5t-58.5 33.5t-72.5 11.5h-238v-330h238z" />
    <glyph glyph-name="C" unicode="C" horiz-adv-x="738" 
d="M685 71q-101 -80 -225 -80q-74 0 -139.5 28t-114.5 77t-77 114.5t-28 139.5t28 139.5t77 114t114.5 77t139.5 28.5q64 0 121 -20.5t103 -57.5l-14 -14q-44 35 -97.5 54t-113.5 19q-71 0 -132.5 -26.5t-107.5 -72.5t-72.5 -108t-26.5 -132q0 -71 26.5 -132.5t72.5 -107.5
t107.5 -72.5t132.5 -26.5q60 0 112.5 18.5t95.5 51.5z" />
    <glyph glyph-name="D" unicode="D" horiz-adv-x="803" 
d="M344 700q74 0 139.5 -27.5t114 -75t77 -111.5t28.5 -136t-28.5 -136t-77 -111.5t-114 -75t-139.5 -27.5h-234v700h234zM344 20q70 0 132 26t108 70.5t72.5 104.5t26.5 129t-26.5 129t-72.5 104.5t-108 70.5t-132 26h-214v-661z" />
    <glyph glyph-name="E" unicode="E" horiz-adv-x="584" 
d="M529 700v-20h-399v-302h399v-20h-399v-338h399v-20h-419v700h419z" />
    <glyph glyph-name="F" unicode="F" horiz-adv-x="584" 
d="M529 700v-20h-399v-322h399v-20h-399v-338h-20v700h419z" />
    <glyph glyph-name="G" unicode="G" horiz-adv-x="763" 
d="M662 66q-46 -36 -102.5 -56.5t-119.5 -20.5q-74 0 -139.5 28t-114.5 77t-77 114.5t-28 139.5t28 139.5t77 114t114.5 77t139.5 28.5q64 0 121 -20.5t103 -57.5l-14 -14q-44 35 -97.5 54t-113.5 19q-71 0 -132.5 -26.5t-107.5 -72.5t-72.5 -108t-26.5 -132
q0 -71 26.5 -132.5t72.5 -107.5t107.5 -72.5t132.5 -26.5q57 0 108.5 17.5t93.5 49.5v257h20z" />
    <glyph glyph-name="H" unicode="H" horiz-adv-x="710" 
d="M580 700h20v-700h-20v358h-450v-358h-20v700h20v-322h450v322z" />
    <glyph glyph-name="I" unicode="I" horiz-adv-x="240" 
d="M110 700h20v-700h-20v700z" />
    <glyph glyph-name="J" unicode="J" horiz-adv-x="441" 
d="M333 701v-449q0 -54 -20.5 -101.5t-56 -82.5t-83 -55.5t-101.5 -20.5h-31v21h31q49 0 92.5 18.5t76 51t51 75.5t18.5 93v449z" />
    <glyph glyph-name="K" unicode="K" horiz-adv-x="584" 
d="M502 700l-234 -268l277 -432h-25l-266 416l-124 -141v-275h-20v700h20v-395l345 395h27z" />
    <glyph glyph-name="L" unicode="L" horiz-adv-x="560" 
d="M130 700v-680h390v-20h-410v700h20z" />
    <glyph glyph-name="M" unicode="M" horiz-adv-x="904" 
d="M794 700v-700h-20v668l-322 -411l-322 411v-668h-20v700h20l322 -413l322 413h20z" />
    <glyph glyph-name="N" unicode="N" horiz-adv-x="710" 
d="M130 700l450 -664v664h20v-700h-20l-450 665v-665h-20v700h20z" />
    <glyph glyph-name="O" unicode="O" 
d="M439 709q74 0 139.5 -28.5t114 -77t77 -114t28.5 -139.5t-28.5 -139.5t-77 -114.5t-114 -77t-139.5 -28t-139.5 28t-114.5 77t-77 114.5t-28 139.5t28 139.5t77 114t114.5 77t139.5 28.5zM439 689q-71 0 -132.5 -26.5t-107.5 -72.5t-72.5 -108t-26.5 -132
q0 -71 26.5 -132.5t72.5 -107.5t107.5 -72.5t132.5 -26.5q70 0 132 26.5t108 72.5t72.5 107.5t26.5 132.5q0 70 -26.5 132t-72.5 108t-108 72.5t-132 26.5z" />
    <glyph glyph-name="P" unicode="P" horiz-adv-x="617" 
d="M331 699q43 0 81 -13.5t66 -38t44.5 -60.5t16.5 -81t-16.5 -81t-44.5 -60.5t-66 -38t-81 -13.5h-201v-313h-20v700zM331 331q40 0 74 12t59.5 34.5t40 54.5t14.5 73t-14.5 73t-40 54.5t-59.5 34.5t-74 12h-200v-347z" />
    <glyph glyph-name="Q" unicode="Q" 
d="M686 90q-48 -46 -111.5 -72t-135.5 -26q-74 0 -139.5 28t-114.5 77t-77 114.5t-28 139.5t28 139.5t77 114t114.5 77t139.5 28.5t139.5 -28.5t114 -77t77 -114t28.5 -139.5q0 -72 -26 -135.5t-72 -111.5l97 -97l-14 -14zM101 351q0 -71 26.5 -132.5t72.5 -107.5
t107.5 -72.5t132.5 -26.5q70 0 132 26.5t108 72.5t72.5 107.5t26.5 132.5q0 70 -26.5 132t-72.5 108t-108 72.5t-132 26.5q-71 0 -132.5 -26.5t-107.5 -72.5t-72.5 -108t-26.5 -132z" />
    <glyph glyph-name="R" unicode="R" horiz-adv-x="641" 
d="M330 700q43 0 81 -12.5t66 -36.5t44.5 -58.5t16.5 -77.5q0 -41 -14.5 -73.5t-40 -56t-60 -37t-74.5 -16.5l213 -332h-24l-212 331h-196v-331h-20v700h220zM332 350q39 0 72.5 11.5t58.5 32.5t39.5 51.5t14.5 69.5t-14.5 69.5t-39.5 51.5t-58.5 32t-72.5 11h-203v-328z
" />
    <glyph glyph-name="S" unicode="S" horiz-adv-x="499" 
d="M250 350q-102 24 -151 73t-49 116q0 45 17.5 77t45.5 52.5t64 30t72 10.5q45 1 85 -10.5t63 -31.5l-15 -15q-20 18 -56 28t-77 9q-32 -1 -64 -9.5t-57.5 -26.5t-41 -46t-15.5 -68q0 -119 175 -167l45 -13q44 -15 74 -33t48.5 -41.5t26.5 -52t8 -64.5q0 -44 -18 -76.5
t-47 -55t-66.5 -34t-76.5 -13.5q-56 -3 -106.5 13.5t-78.5 50.5l15 15q26 -31 71.5 -45.5t96.5 -11.5q36 2 70 12.5t60.5 30t43 48t16.5 66.5q0 33 -7 59t-23.5 46.5t-43.5 37t-67 30.5z" />
    <glyph glyph-name="T" unicode="T" horiz-adv-x="570" 
d="M530 700v-20h-235v-680h-20v680h-235v20h490z" />
    <glyph glyph-name="U" unicode="U" horiz-adv-x="730" 
d="M612 700h21v-449q0 -54 -20.5 -101.5t-56 -82.5t-83 -55.5t-101.5 -20.5t-101.5 20.5t-83 55.5t-56 82.5t-20.5 101.5v449h22v-449q0 -50 18.5 -93t51 -75.5t75.5 -51t93 -18.5q49 0 92.5 18.5t76 51t51 75.5t18.5 93z" />
    <glyph glyph-name="V" unicode="V" horiz-adv-x="724" 
d="M685 700l-309 -700h-27l-309 700h21l301 -680l301 680h22z" />
    <glyph glyph-name="W" unicode="W" horiz-adv-x="1049" 
d="M1011 700l-248 -700h-25l-212 680l-212 -680h-25l-248 700h22l239 -680l207 680h33l207 -680l239 680h23z" />
    <glyph glyph-name="X" unicode="X" horiz-adv-x="591" 
d="M530 0l-234 350l-234 -350h-22l245 366l-224 334h22l215 -320l211 320h22l-222 -337l243 -363h-22z" />
    <glyph glyph-name="Y" unicode="Y" horiz-adv-x="636" 
d="M597 701l-269 -397v-303h-20v303l-268 397h23l255 -380l256 379z" />
    <glyph glyph-name="Z" unicode="Z" horiz-adv-x="569" 
d="M509 700v-20l-430 -660h435v-20h-459v20l429 660h-414v20h439z" />
    <glyph glyph-name="bracketleft" unicode="[" horiz-adv-x="185" 
d="M70 730v-850h65v-20h-85v890h85v-20h-65z" />
    <glyph glyph-name="backslash" unicode="\" horiz-adv-x="435" 
d="M70 700l315 -700h-20l-315 700h20z" />
    <glyph glyph-name="bracketright" unicode="]" horiz-adv-x="185" 
d="M135 750v-890h-85v20h65v850h-65v20h85z" />
    <glyph glyph-name="asciicircum" unicode="^" horiz-adv-x="502" 
d="M263 664l189 -289h-24l-177 270l-177 -270h-24l189 289h24z" />
    <glyph glyph-name="underscore" unicode="_" horiz-adv-x="514" 
d="M464 -80v-20h-414v20h414z" />
    <glyph glyph-name="grave" unicode="`" horiz-adv-x="202" 
d="M50 700h42l60 -110h-22z" />
    <glyph glyph-name="a" unicode="a" horiz-adv-x="558" 
d="M96 457q35 29 81 40.5t107 11.5q96 0 148 -53.5t53 -163.5v-292h-20v63q-17 -17 -40 -30t-48.5 -22t-52 -14t-49.5 -5q-100 -1 -151.5 47t-51.5 134q0 81 53.5 130t159.5 49q45 0 91.5 -10t88.5 -38q-3 94 -49 139t-132 45q-60 0 -102 -10.5t-75 -36.5zM465 286
q-16 14 -37.5 23t-46 14.5t-49 8t-46.5 2.5q-99 0 -146.5 -42.5t-47.5 -116.5q0 -78 46 -120t138 -42q22 0 49.5 5t54.5 15t49.5 23t36.5 30z" />
    <glyph glyph-name="b" unicode="b" horiz-adv-x="583" 
d="M109 699v-236q40 24 75 33.5t82 9.5q64 0 109 -17t73 -50t41 -81t13 -109q0 -128 -53.5 -192.5t-182.5 -64.5q-43 0 -84 13.5t-72 35.5v-41h-20v700zM109 61q12 -11 30.5 -20.5t39.5 -16t43.5 -10.5t43.5 -4q61 0 102.5 14.5t67 44.5t36.5 74.5t11 104.5
q0 58 -11.5 102.5t-37 74.5t-67 45.5t-101.5 15.5q-44 0 -87 -11t-70 -33v-381z" />
    <glyph glyph-name="c" unicode="c" horiz-adv-x="574" 
d="M498 50q-33 -26 -73.5 -41t-85.5 -15q-53 0 -100 20t-82 55t-55 82t-20 100t20 100t55 82t82 55t100 20q46 0 87 -15t74 -41l-15 -14q-64 50 -147 50q-50 0 -93 -18.5t-75.5 -51t-51 -76t-18.5 -92.5q0 -50 18.5 -93t51 -75.5t75.5 -51t93 -18.5q83 0 145 50z" />
    <glyph glyph-name="d" unicode="d" horiz-adv-x="583" 
d="M493 701v-700h-20v41q-31 -22 -72 -35.5t-84 -13.5q-129 0 -182.5 64.5t-53.5 192.5q0 61 13 109t41 81t73 50t109 17q47 0 82 -9.5t75 -33.5v236zM473 446q-27 22 -70 33t-87 11q-60 0 -101.5 -15.5t-67 -45.5t-37 -74.5t-11.5 -102.5q0 -60 11 -104.5t36.5 -74.5
t67 -44.5t102.5 -14.5q21 0 43.5 4t43.5 10.5t39.5 16t30.5 20.5v381z" />
    <glyph glyph-name="e" unicode="e" horiz-adv-x="641" 
d="M531 59q-21 -22 -44.5 -35t-47.5 -20t-48 -9t-46 -2q-54 0 -101.5 20t-83.5 55t-57 82t-21 100t20 100t55 82t82 55t100 20q57 0 101 -19t73 -48t43 -62t11 -62t-24 -48t-62 -19h-379q0 -49 19 -92t52 -75t76.5 -50.5t93.5 -18.5q20 0 41.5 1.5t44 7.5t44 18t41.5 32z
M490 270q21 0 34.5 9.5t19 24.5t3.5 34.5t-11 39.5q-10 21 -27 40.5t-41.5 35t-56.5 25t-71 9.5q-47 0 -88.5 -17t-73 -46t-51 -69t-23.5 -86h386z" />
    <glyph glyph-name="f" unicode="f" horiz-adv-x="345" 
d="M295 708v-20h-69q-28 0 -48 -20t-20 -49v-119h121v-20h-121v-480h-20v480h-88v20h88v119q0 18 7 34.5t19 28.5t28 19t34 7h69z" />
    <glyph glyph-name="g" unicode="g" horiz-adv-x="583" 
d="M117 -95q33 -27 72 -37.5t104 -10.5q50 0 84 8.5t55 31t31 62t11 101.5q-35 -31 -74.5 -45t-82.5 -14q-128 0 -182 63.5t-54 186.5q0 64 12.5 112t41 80t73 48.5t109.5 16.5q43 0 84 -13.5t72 -35.5v41h20v-447q0 -62 -11 -104t-35 -67t-62 -35.5t-93 -10.5q-34 0 -61 3
t-49.5 9t-41 16t-36.5 24zM474 440q-12 11 -30.5 20.5t-39.5 16t-43.5 10.5t-43.5 4q-61 0 -102.5 -14.5t-67 -44.5t-36.5 -74.5t-11 -104.5q0 -58 11.5 -101t37 -71.5t67 -43t101.5 -14.5q39 0 83 15.5t74 44.5v357z" />
    <glyph glyph-name="h" unicode="h" horiz-adv-x="594" 
d="M490 -1v250q0 58 -8.5 102.5t-31.5 74.5t-62.5 45.5t-100.5 15.5q-47 0 -93.5 -17.5t-77.5 -40.5v-429h-20v700h20v-250q30 23 75 40t96 17q66 0 109 -17t68 -50t35 -81t10 -109v-250z" />
    <glyph glyph-name="i" unicode="i" horiz-adv-x="205" 
d="M105 598q-8 0 -13 5t-5 13t5 13t13 5t13 -5t5 -13t-5 -13t-13 -5zM95 500h20v-500h-20v500z" />
    <glyph glyph-name="j" unicode="j" horiz-adv-x="307" 
d="M200 633q8 0 13 -5t5 -13t-5 -13t-13 -5t-13 5t-5 13t5 13t13 5zM210 500v-580q0 -18 -7 -34.5t-19 -28.5t-28 -19t-34 -7h-27v20h27q28 0 48 20t20 49v580h20z" />
    <glyph glyph-name="k" unicode="k" horiz-adv-x="534" 
d="M224 294l-109 -105v-189h-20v700h20v-482l294 282h29l-200 -193l247 -307h-25z" />
    <glyph glyph-name="l" unicode="l" horiz-adv-x="200" 
d="M95 700h20v-700h-20v700z" />
    <glyph glyph-name="m" unicode="m" horiz-adv-x="983" 
d="M113 446q30 23 75 40t96 17q75 0 120.5 -21t69.5 -63q15 13 37.5 27.5t50 27.5t57.5 21.5t60 8.5q66 0 109 -17t68 -50t35 -81t10 -109v-250h-21v250q0 58 -8.5 102.5t-31.5 74.5t-62.5 45.5t-100.5 15.5q-26 0 -54 -7.5t-55 -19.5t-50 -25.5t-39 -25.5q14 -31 20 -70.5
t6 -87.5v-250h-21v250q0 58 -8.5 102.5t-31.5 74.5t-62.5 45.5t-100.5 15.5q-47 0 -93.5 -17.5t-77.5 -40.5v-429h-20v500h20z" />
    <glyph glyph-name="n" unicode="n" horiz-adv-x="589" 
d="M485 -1v250q0 58 -8.5 102.5t-31.5 74.5t-62.5 45.5t-100.5 15.5q-47 0 -93.5 -17.5t-77.5 -40.5v-429h-20v500h20v-50q30 23 75 40t96 17q66 0 109 -17t68 -50t35 -81t10 -109v-250z" />
    <glyph glyph-name="o" unicode="o" horiz-adv-x="675" 
d="M338 508q53 0 100 -20t82 -55t55 -82t20 -100t-20 -100t-55 -82t-82 -55t-100 -20t-100 20t-82 55t-55 82t-20 100t20 100t55 82t82 55t100 20zM338 487q-50 0 -93 -18.5t-75.5 -51t-51 -76t-18.5 -92.5q0 -50 18.5 -93t51 -75.5t75.5 -51t93 -18.5q49 0 92.5 18.5t76 51
t51 75.5t18.5 93q0 49 -18.5 92.5t-51 76t-76 51t-92.5 18.5z" />
    <glyph glyph-name="p" unicode="p" horiz-adv-x="583" 
d="M110 459q31 22 72 35.5t84 13.5q64 0 109 -16.5t73.5 -48.5t41 -80t12.5 -112q0 -62 -13 -110t-41 -81t-73 -50t-109 -17q-42 0 -78.5 10.5t-77.5 36.5v-204h-20v664h20v-41zM110 59q12 -10 30 -19t39 -15.5t44 -10t44 -3.5q60 0 101.5 15.5t67 45.5t37 74.5t11.5 102.5
q0 60 -11 104.5t-36.5 74.5t-67 44.5t-102.5 14.5q-21 0 -43.5 -4t-43.5 -10.5t-39.5 -16t-30.5 -20.5v-377z" />
    <glyph glyph-name="q" unicode="q" horiz-adv-x="583" 
d="M474 40q-41 -26 -77.5 -36.5t-78.5 -10.5q-64 0 -109 17t-73 50t-41 81t-13 110q0 64 12.5 112t41 80t73 48.5t109.5 16.5q43 0 84 -13.5t72 -35.5v41h20v-664h-20v204zM474 438q-12 11 -30.5 20.5t-39.5 16t-43.5 10.5t-43.5 4q-61 0 -102.5 -14.5t-67 -44.5
t-36.5 -74.5t-11 -104.5q0 -58 11.5 -102.5t37 -74.5t67 -45.5t101.5 -15.5q21 0 44 3.5t44 10t39 15.5t30 19v377z" />
    <glyph glyph-name="r" unicode="r" horiz-adv-x="465" 
d="M109 411q39 42 89 68.5t105 27.5q28 0 56 -7t56 -24l-14 -14q-46 25 -97 25q-57 -1 -106.5 -29t-87.5 -72v-386h-20v500h20z" />
    <glyph glyph-name="s" unicode="s" horiz-adv-x="379" 
d="M65 49q33 -25 62 -33.5t53 -8.5q27 0 50.5 8.5t41 23.5t27.5 35t10 43t-5 42.5t-18 36t-36 30t-60 24.5q-40 10 -66.5 23.5t-42.5 31t-22.5 39t-6.5 45.5q0 28 11.5 50t30.5 37t43 23t50 8q28 0 55.5 -7t52.5 -21l-16 -15q-24 13 -47 18t-46 5q-21 0 -41.5 -6t-36.5 -18
t-26 -30t-10 -41q0 -21 5.5 -39t18.5 -32t35 -25.5t55 -20.5q80 -20 111.5 -57.5t31.5 -97.5q0 -28 -11.5 -51.5t-31.5 -41t-47 -27t-59 -9.5q-29 0 -61.5 9t-68.5 38z" />
    <glyph glyph-name="t" unicode="t" horiz-adv-x="330" 
d="M143 629v-129h137v-20h-137v-399q0 -29 20 -49t48 -20h69v-20h-69q-18 0 -34 7t-28 19t-19 28.5t-7 34.5v399h-73v20h73v129h20z" />
    <glyph glyph-name="u" unicode="u" horiz-adv-x="603" 
d="M511 502v-500h-20v75q-41 -41 -91 -62t-105 -21q-64 0 -105 17t-64.5 50t-32.5 80.5t-9 109.5v250h21v-250q0 -58 8 -102.5t29 -74.5t58.5 -45.5t96.5 -15.5q50 0 102 21t94 63v403z" />
    <glyph glyph-name="v" unicode="v" horiz-adv-x="536" 
d="M486 500l-206 -500h-24l-206 500h20l198 -480l198 480h20z" />
    <glyph glyph-name="w" unicode="w" horiz-adv-x="835" 
d="M611 0h-26l-165 480l-165 -480h-26l-177 500h20l170 -480l164 480h26l164 -480l170 480h20z" />
    <glyph glyph-name="x" unicode="x" horiz-adv-x="444" 
d="M235 247l159 -247h-22l-150 233l-150 -233h-22l161 250l-161 250h22l152 -236l148 236h22z" />
    <glyph glyph-name="y" unicode="y" horiz-adv-x="589" 
d="M495 500v-467q-2 -56 -14.5 -93.5t-36.5 -60.5t-61.5 -32.5t-89.5 -9.5q-34 0 -61 3t-49.5 9t-41 16t-36.5 24l13 16q33 -27 72 -37.5t104 -10.5q49 0 83 8t55.5 28.5t32 54.5t12.5 86v25q-30 -23 -75 -40t-96 -17q-66 0 -109 17t-68 50t-35 80.5t-10 109.5v242h21v-242
q0 -58 8.5 -102.5t31.5 -74.5t62 -45.5t101 -15.5q47 0 93.5 17.5t77.5 40.5v421h16z" />
    <glyph glyph-name="z" unicode="z" horiz-adv-x="430" 
d="M381 20v-20h-331v20l303 460h-290v20h314v-20l-303 -460h307z" />
    <glyph glyph-name="braceleft" unicode="{" horiz-adv-x="319" 
d="M269 750v-20h-35q-20 0 -35.5 -15.5t-15.5 -40.5v-255q0 -39 -22 -69.5t-58 -44.5q36 -14 58 -44.5t22 -69.5v-255q0 -25 15.5 -40.5t35.5 -15.5h35v-20h-35q-29 0 -50 21t-21 55v255q0 43 -30.5 72.5t-77.5 31.5h-5v20h5q47 2 77.5 31t30.5 73v255q0 34 21 55t50 21h35z
" />
    <glyph glyph-name="bar" unicode="|" horiz-adv-x="120" 
d="M70 700v-760h-20v760h20z" />
    <glyph glyph-name="braceright" unicode="}" horiz-adv-x="319" 
d="M85 750q29 0 50 -21t21 -55v-255q0 -44 30.5 -73t77.5 -31h5v-20h-5q-47 -2 -77.5 -31.5t-30.5 -72.5v-255q0 -34 -21 -55t-50 -21h-35v20h35q20 0 35.5 15.5t15.5 40.5v255q0 39 22 69.5t58 44.5q-36 14 -58 44.5t-22 69.5v255q0 25 -15.5 40.5t-35.5 15.5h-35v20h35z
" />
    <glyph glyph-name="asciitilde" unicode="~" horiz-adv-x="466" 
d="M417 297l-35 -35q-26 -26 -59.5 -22t-65.5 23l-61 36q-25 14 -51 17.5t-46 -16.5l-49 -49v28l35 35q26 26 59.5 22t65.5 -23l61 -36q24 -14 50.5 -17.5t46.5 16.5l49 49v-28z" />
    <glyph glyph-name="exclamdown" unicode="&#xa1;" horiz-adv-x="142" 
d="M71 548q9 0 15 -6t6 -15t-6 -15t-15 -6t-15 6t-6 15t6 15t15 6zM81 -163h-20v561h20v-561z" />
    <glyph glyph-name="cent" unicode="&#xa2;" horiz-adv-x="574" 
d="M328 599v-92q16 1 36.5 -1t43 -8t46 -17.5t46.5 -29.5l-15 -15q-22 17 -44.5 27.5t-42.5 15.5t-38 6.5t-31 1.5v-474q30 -1 71.5 8.5t82.5 41.5l15 -15q-24 -19 -48 -30t-46.5 -16.5t-42 -7t-33.5 -1.5v-91h-20v93q-48 6 -89.5 28t-72.5 56t-48.5 78t-17.5 94
q0 49 17.5 93.5t48.5 78.5t72.5 56t89.5 28v94zM308 485q-44 -5 -82 -25.5t-66 -52t-44 -72t-16 -86.5t16 -86.5t44 -72t66 -52t82 -25.5v472z" />
    <glyph glyph-name="sterling" unicode="&#xa3;" horiz-adv-x="630" 
d="M117 491q-11 64 5.5 106t48.5 66t73.5 33.5t82.5 9.5q60 0 114.5 -20t98.5 -55l-15 -14q-41 32 -90.5 50t-108.5 18q-36 0 -74 -8t-66.5 -29.5t-43.5 -60t-4 -98.5l23 -130h239v-20h-235l16 -90q7 -42 9 -80t-4 -69t-21.5 -54t-42.5 -35h459v-21h-531v21q41 4 67 19.5
t38.5 45t13.5 72.5t-9 102l-15 90h-95v20h92z" />
    <glyph glyph-name="currency" unicode="&#xa4;" horiz-adv-x="600" 
 />
    <glyph glyph-name="yen" unicode="&#xa5;" horiz-adv-x="563" 
d="M523 700l-178 -292h144v-20h-156l-40 -67v-20h196v-20h-198v-281h-20v281h-196v20h195v20l-40 67h-155v20h143l-178 292h23l218 -359l219 359h23z" />
    <glyph glyph-name="brokenbar" unicode="&#xa6;" horiz-adv-x="120" 
d="M70 698v-319h-20v320zM70 257v-319h-20v320z" />
    <glyph glyph-name="section" unicode="&#xa7;" horiz-adv-x="420" 
d="M140 212q-48 18 -68.5 46.5t-20.5 61.5q0 30 13.5 54.5t36.5 38.5q-23 15 -36.5 39.5t-13.5 57.5q0 23 9 43.5t27.5 36t47.5 24.5t69 9q48 0 88 -7.5t59 -17.5l-9 -18q-17 9 -54.5 16t-83.5 7q-71 0 -102 -27.5t-31 -65.5q0 -31 17 -54.5t57 -37.5l102 -37
q64 -23 94 -59.5t30 -80.5q0 -27 -10 -51t-27 -41q17 -18 27 -42t10 -51q0 -56 -43 -90.5t-124 -34.5q-49 0 -90.5 7.5t-60.5 17.5l9 18q17 -9 56 -16t86 -7q73 0 110 28.5t37 76.5q0 18 -4 34.5t-16 31.5t-33 28t-54 25zM124 402q-24 -10 -38.5 -32t-14.5 -51q0 -27 17 -50
t59 -39l105 -38q4 -2 14 -6t20.5 -9t19.5 -9.5t13 -7.5q15 16 23.5 36t8.5 43q0 37 -26.5 68.5t-84.5 52.5z" />
    <glyph glyph-name="dieresis" unicode="&#xa8;" horiz-adv-x="323" 
d="M71 668q-9 0 -15 6t-6 15t6 15t15 6t15 -6t6 -15t-6 -15t-15 -6zM252 668q-9 0 -15 6t-6 15t6 15t15 6t15 -6t6 -15t-6 -15t-15 -6z" />
    <glyph glyph-name="copyright" unicode="&#xa9;" horiz-adv-x="818" 
d="M409 709q74 0 139.5 -28.5t114 -77t77 -114t28.5 -139.5t-28.5 -139.5t-77 -114.5t-114 -77t-139.5 -28t-139.5 28t-114.5 77t-77 114.5t-28 139.5t28 139.5t77 114t114.5 77t139.5 28.5zM409 689q-71 0 -132.5 -26.5t-107.5 -72.5t-72.5 -108t-26.5 -132
q0 -71 26.5 -132.5t72.5 -107.5t107.5 -72.5t132.5 -26.5q70 0 132 26.5t108 72.5t72.5 107.5t26.5 132.5q0 70 -26.5 132t-72.5 108t-108 72.5t-132 26.5zM535 212q-24 -20 -54.5 -31.5t-64.5 -11.5q-38 0 -71.5 14.5t-58.5 39.5t-39.5 58.5t-14.5 71.5t14.5 71.5
t39.5 58.5t58.5 39.5t71.5 14.5q34 0 64.5 -12t54.5 -32l-14 -14q-22 18 -48.5 28t-57.5 10q-35 0 -64.5 -13t-52 -35t-35 -52.5t-12.5 -64.5q0 -35 12.5 -65t35 -52t52 -35t64.5 -13q30 0 56.5 10t48.5 27z" />
    <glyph glyph-name="ordfeminine" unicode="&#xaa;" horiz-adv-x="381" 
d="M59 676q23 19 52.5 26.5t68.5 7.5q61 0 94.5 -34.5t34.5 -103.5v-185h-18v35q-22 -20 -54.5 -30.5t-60.5 -10.5q-63 -1 -96.5 30t-33.5 85q0 52 34.5 83.5t102.5 31.5q26 0 54 -6t54 -22q-6 108 -109 108q-38 0 -64 -7t-46 -24zM291 567q-20 17 -51.5 22.5t-58.5 5.5
q-60 0 -89 -25.5t-29 -70.5q0 -48 27.5 -73.5t84.5 -25.5q14 0 30.5 3t32.5 9t30 14.5t23 18.5v122z" />
    <glyph glyph-name="guillemotleft" unicode="&#xab;" horiz-adv-x="332" 
d="M166 383v-26l-100 -79l100 -78v-26l-116 92v25zM282 383v-26l-100 -79l100 -78v-26l-116 92v25z" />
    <glyph glyph-name="logicalnot" unicode="&#xac;" horiz-adv-x="514" 
d="M444 175v126h-394v20h414v-145z" />
    <glyph glyph-name="uni00AD" unicode="&#xad;" horiz-adv-x="348" 
d="M298 279v-20h-248v20h248z" />
    <glyph glyph-name="registered" unicode="&#xae;" horiz-adv-x="818" 
d="M409 709q74 0 139.5 -28.5t114 -77t77 -114t28.5 -139.5t-28.5 -139.5t-77 -114.5t-114 -77t-139.5 -28t-139.5 28t-114.5 77t-77 114.5t-28 139.5t28 139.5t77 114t114.5 77t139.5 28.5zM409 689q-71 0 -132.5 -26.5t-107.5 -72.5t-72.5 -108t-26.5 -132
q0 -71 26.5 -132.5t72.5 -107.5t107.5 -72.5t132.5 -26.5q70 0 132 26.5t108 72.5t72.5 107.5t26.5 132.5q0 70 -26.5 132t-72.5 108t-108 72.5t-132 26.5zM418 537q22 0 42 -6.5t35 -19.5t23.5 -31t8.5 -40q0 -41 -26.5 -66.5t-64.5 -30.5l109 -171h-24l-108 170h-90v-170
h-20v364zM419 363q38 0 63 20t25 57t-25 57t-63 20h-96v-154h96z" />
    <glyph glyph-name="macron" unicode="&#xaf;" horiz-adv-x="391" 
d="M341 700v-20h-291v20h291z" />
    <glyph glyph-name="degree" unicode="&#xb0;" horiz-adv-x="336" 
d="M168 708q24 0 45.5 -9.5t37.5 -25.5t25.5 -37.5t9.5 -45.5t-9.5 -45.5t-25.5 -37.5t-37.5 -25.5t-45.5 -9.5t-45.5 9.5t-37.5 25.5t-25.5 37.5t-9.5 45.5t9.5 45.5t25.5 37.5t37.5 25.5t45.5 9.5zM168 686q-41 0 -69 -28t-28 -69t28 -69t69 -28t69.5 28t28.5 69
t-28.5 69.5t-69.5 28.5v-1z" />
    <glyph glyph-name="plusminus" unicode="&#xb1;" horiz-adv-x="514" 
d="M267 517v-148h197v-20h-197v-147h-20v147h-197v20h197v148h20zM464 20v-20h-414v20h414z" />
    <glyph glyph-name="uni00B2" unicode="&#xb2;" horiz-adv-x="317" 
d="M59 671q22 18 49.5 28t58.5 10q20 0 39 -5.5t33 -17.5q13 -11 20.5 -26.5t6.5 -37.5q-1 -23 -10.5 -37t-23.5 -23t-32 -14.5t-36 -12.5t-35 -16.5t-30 -26t-21 -41.5t-8 -62h197v-20h-217v10q0 46 9.5 76.5t24.5 50t34 30t39 17.5q17 6 32.5 11t28 12t20 17.5t8.5 28.5
q1 28 -18 46q-11 10 -27 14.5t-33 4.5q-30 0 -52.5 -7.5t-42.5 -23.5z" />
    <glyph glyph-name="uni00B3" unicode="&#xb3;" horiz-adv-x="313" 
d="M49 669q22 18 49.5 28t58.5 10q42 0 70.5 -22t28.5 -64q0 -29 -16.5 -51t-44.5 -29q31 -7 49.5 -29.5t18.5 -57.5q0 -42 -27.5 -65.5t-78.5 -25.5q-31 0 -58 10t-49 28l13 13q21 -16 43.5 -23.5t51.5 -7.5q34 0 59.5 17t25.5 54q0 35 -21.5 54.5t-62.5 20.5h-50v20h49
q36 0 57 19.5t21 51.5q0 34 -22.5 50.5t-55.5 16.5q-26 0 -51 -8.5t-43 -22.5z" />
    <glyph glyph-name="acute" unicode="&#xb4;" horiz-adv-x="202" 
d="M152 700l-80 -110h-22l60 110h42z" />
    <glyph glyph-name="paragraph" unicode="&#xb6;" horiz-adv-x="537" 
d="M487 700v-20h-38v-843h-20v843h-117v-843h-20v471q-120 0 -181 51.5t-61 140.5q0 109 61 154.5t183 45.5h193z" />
    <glyph glyph-name="periodcentered" unicode="&#xb7;" horiz-adv-x="142" 
d="M71 291q-9 0 -15 6t-6 15t6 15t15 6t15 -6t6 -15t-6 -15t-15 -6z" />
    <glyph glyph-name="cedilla" unicode="&#xb8;" horiz-adv-x="238" 
d="M107 0v-45h13q37 0 52.5 -19t15.5 -42q0 -20 -16.5 -39.5t-51.5 -19.5h-70v20h70q27 0 37.5 14t10.5 25q0 14 -9.5 27.5t-38.5 13.5h-33v65h20z" />
    <glyph glyph-name="uni00B9" unicode="&#xb9;" horiz-adv-x="120" 
d="M50 700h20v-338h-20v338z" />
    <glyph glyph-name="ordmasculine" unicode="&#xba;" horiz-adv-x="422" 
d="M211 709q34 0 63.5 -13t52 -35.5t35.5 -52t13 -63.5t-13 -63.5t-35.5 -52t-52 -35.5t-63.5 -13t-63.5 13t-52 35.5t-35.5 52t-13 63.5t13 63.5t35.5 52t52 35.5t63.5 13zM211 690q-30 0 -56.5 -11.5t-46 -31t-31 -46t-11.5 -56.5t11.5 -56.5t31 -46t46 -31t56.5 -11.5
t56.5 11.5t46 31t31 46t11.5 56.5t-11.5 56.5t-31 46t-46 31t-56.5 11.5z" />
    <glyph glyph-name="guillemotright" unicode="&#xbb;" horiz-adv-x="332" 
d="M50 383l116 -92v-25l-116 -92v26l100 78l-100 79v26zM166 383l116 -92v-25l-116 -92v26l100 78l-100 79v26z" />
    <glyph glyph-name="onequarter" unicode="&#xbc;" horiz-adv-x="573" 
d="M70 700v-338h-20v338h20zM419 700l-315 -700h-20l315 700h20zM499 338v-228h24v-19h-24v-90h-20v90h-186v19l176 228h30zM479 320l-161 -210h161v210z" />
    <glyph glyph-name="onehalf" unicode="&#xbd;" horiz-adv-x="600" 
d="M70 700v-338h-20v338h20zM410 700l-315 -700h-20l315 700h20zM341 304q22 18 49.5 28t58.5 10q21 0 41.5 -6t34.5 -20q24 -23 23 -61q-1 -23 -10.5 -37t-23.5 -23t-32 -14.5t-36 -12.5t-35 -16.5t-30 -26t-21 -41.5t-8 -62h197v-20h-217v10q0 46 9.5 76.5t24.5 49.5
t34 29.5t39 17.5q17 6 33 11t28.5 12t20 17.5t8.5 28.5q1 26 -13 42q-11 12 -28 17.5t-36 5.5q-30 0 -52.5 -7.5t-42.5 -23.5z" />
    <glyph glyph-name="threequarters" unicode="&#xbe;" horiz-adv-x="678" 
d="M49 669q22 18 49.5 28t58.5 10q42 0 70.5 -22t28.5 -64q0 -29 -16.5 -51t-44.5 -29q31 -7 49.5 -29.5t18.5 -57.5q0 -42 -27.5 -65.5t-78.5 -25.5q-31 0 -58 10t-49 28l13 13q21 -16 43.5 -23.5t51.5 -7.5q34 0 59.5 17t25.5 54q0 35 -21.5 54.5t-62.5 20.5h-50v20h49
q36 0 57 19.5t21 51.5q0 34 -22.5 50.5t-55.5 16.5q-26 0 -51 -8.5t-43 -22.5zM522 701l-315 -700h-20l315 700h20zM602 339v-228h24v-19h-24v-90h-20v90h-186v19l176 228h30zM582 321l-161 -210h161v210z" />
    <glyph glyph-name="questiondown" unicode="&#xbf;" horiz-adv-x="508" 
d="M316 556q9 0 15 -6t6 -15t-6 -15t-15 -6t-15 6t-6 15t6 15t15 6zM329 307q0 -42 -11.5 -70t-30.5 -47t-43 -31.5t-49 -22.5q-23 -10 -45.5 -20t-39.5 -24t-27.5 -34.5t-10.5 -51.5q0 -40 16 -68.5t43 -47.5q46 -32 114 -32q59 0 108.5 18t90.5 50l15 -16
q-44 -35 -98.5 -54.5t-114.5 -19.5q-74 0 -126 35q-32 21 -51 55t-19 80q0 37 12.5 61t32 40t44.5 26t50 21q22 9 43.5 20.5t37.5 29t26 42.5t10 62z" />
    <glyph glyph-name="Agrave" unicode="&#xc0;" horiz-adv-x="733" 
d="M358 900l60 -110h-22l-80 110h42zM381 700l313 -700h-22l-115 256h-380l-115 -256h-22l313 700h28zM367 680l-181 -404h362z" />
    <glyph glyph-name="Aacute" unicode="&#xc1;" horiz-adv-x="733" 
d="M418 900l-80 -110h-22l60 110h42zM381 700l313 -700h-22l-115 256h-380l-115 -256h-22l313 700h28zM367 680l-181 -404h362z" />
    <glyph glyph-name="Acircumflex" unicode="&#xc2;" horiz-adv-x="733" 
d="M381 900l114 -125h-28l-100 109l-100 -109h-28l114 125h28zM381 700l313 -700h-22l-115 256h-380l-115 -256h-22l313 700h28zM367 680l-181 -404h362z" />
    <glyph glyph-name="Atilde" unicode="&#xc3;" horiz-adv-x="733" 
d="M497 890v-28l-20 -20q-20 -20 -46.5 -16.5t-45.5 14.5l-43 25q-19 11 -36 13t-28 -9l-44 -44v28l30 30q18 18 41.5 15.5t45.5 -15.5l43 -25q17 -10 35 -12.5t32 11.5zM383 699l313 -700h-22l-115 256h-380l-115 -256h-22l313 700h28zM369 679l-181 -404h362z" />
    <glyph glyph-name="Adieresis" unicode="&#xc4;" horiz-adv-x="733" 
d="M277 868q-9 0 -15 6t-6 15t6 15t15 6t15 -6t6 -15t-6 -15t-15 -6zM458 868q-9 0 -15 6t-6 15t6 15t15 6t15 -6t6 -15t-6 -15t-15 -6zM381 700l313 -700h-22l-115 256h-380l-115 -256h-22l313 700h28zM367 680l-181 -404h362z" />
    <glyph glyph-name="Aring" unicode="&#xc5;" horiz-adv-x="733" 
d="M695 0h-22l-115 256h-380l-115 -256h-22l313 700q-32 5 -53 29.5t-21 58.5q0 18 6.5 34t18.5 28t28 19t35 7q18 0 34.5 -7t28.5 -19t19 -28t7 -34q0 -34 -22 -58.5t-54 -29.5zM300 789q0 -29 19.5 -49.5t48.5 -20.5t49 20.5t20 49.5q0 27 -20 47.5t-49 20.5t-48.5 -20.5
t-19.5 -47.5zM549 276l-181 404l-181 -404h362z" />
    <glyph glyph-name="AE" unicode="&#xc6;" horiz-adv-x="827" 
d="M772 700v-20h-399v-302h399v-20h-399v-338h399v-20h-419v256h-177l-115 -256h-21l313 700h419zM353 651l-168 -375h168v375z" />
    <glyph glyph-name="Ccedilla" unicode="&#xc7;" horiz-adv-x="738" 
d="M421 -7q-68 7 -126 38t-101.5 78.5t-68 109.5t-24.5 131q0 74 28 139.5t77 114t114.5 77t139.5 28.5q64 0 121 -20.5t103 -57.5l-14 -14q-44 35 -97.5 54t-113.5 19q-71 0 -132.5 -26.5t-107.5 -72.5t-72.5 -108t-26.5 -132q0 -71 26.5 -132.5t72.5 -107.5t107.5 -72.5
t132.5 -26.5q60 0 112.5 18.5t95.5 51.5l17 -11q-101 -80 -225 -80h-19v-36h13q37 0 52.5 -19t15.5 -42q0 -20 -16.5 -39.5t-51.5 -19.5h-70v20h70q27 0 37.5 14t10.5 25q0 14 -9.5 27.5t-38.5 13.5h-33z" />
    <glyph glyph-name="Egrave" unicode="&#xc8;" horiz-adv-x="584" 
d="M305 900l60 -110h-22l-80 110h42zM529 700v-20h-399v-302h399v-20h-399v-338h399v-20h-419v700h419z" />
    <glyph glyph-name="Eacute" unicode="&#xc9;" horiz-adv-x="584" 
d="M365 900l-80 -110h-22l60 110h42zM529 700v-20h-399v-302h399v-20h-399v-338h399v-20h-419v700h419z" />
    <glyph glyph-name="Ecircumflex" unicode="&#xca;" horiz-adv-x="584" 
d="M328 900l114 -125h-28l-100 109l-100 -109h-28l114 125h28zM529 700v-20h-399v-302h399v-20h-399v-338h399v-20h-419v700h419z" />
    <glyph glyph-name="Edieresis" unicode="&#xcb;" horiz-adv-x="584" 
d="M223 868q-9 0 -15 6t-6 15t6 15t15 6t15 -6t6 -15t-6 -15t-15 -6zM404 868q-9 0 -15 6t-6 15t6 15t15 6t15 -6t6 -15t-6 -15t-15 -6zM528 700v-20h-399v-302h399v-20h-399v-338h399v-20h-419v700h419z" />
    <glyph glyph-name="Igrave" unicode="&#xcc;" horiz-adv-x="205" 
d="M53 900h42l60 -110h-22zM94 700h20v-700h-20v700z" />
    <glyph glyph-name="Iacute" unicode="&#xcd;" horiz-adv-x="240" 
d="M171 900l-80 -110h-22l60 110h42zM110 700h20v-700h-20v700z" />
    <glyph glyph-name="Icircumflex" unicode="&#xce;" horiz-adv-x="240" 
d="M134 900l114 -125h-28l-100 109l-100 -109h-28l114 125h28zM130 700v-700h-20v700h20z" />
    <glyph glyph-name="Idieresis" unicode="&#xcf;" horiz-adv-x="241" 
d="M30 868q-9 0 -15.5 6t-6.5 15t6.5 15t15.5 6t15 -6t6 -15t-6 -15t-15 -6zM211 868q-9 0 -15 6t-6 15t6 15t15 6t15 -6t6 -15t-6 -15t-15 -6zM110 700h20v-700h-20v700z" />
    <glyph glyph-name="Eth" unicode="&#xd0;" horiz-adv-x="831" 
d="M382 700q74 0 139.5 -27.5t114 -75t77 -111.5t28.5 -136t-28.5 -136t-77 -111.5t-114 -75t-139.5 -27.5h-234v348h-108v20h108v332h234zM382 21q70 0 132 26t108 70.5t72.5 104.5t26.5 129t-26.5 129t-72.5 104.5t-108 70.5t-132 26h-214v-313h120v-20h-120v-329z" />
    <glyph glyph-name="Ntilde" unicode="&#xd1;" horiz-adv-x="710" 
d="M487 890v-28l-20 -20q-20 -20 -46.5 -16.5t-45.5 14.5l-43 25q-19 11 -36 13t-28 -9l-44 -44v28l30 30q18 18 41.5 15.5t45.5 -15.5l43 -25q17 -10 35 -12.5t32 11.5zM132 699l450 -664v664h20v-700h-20l-450 665v-665h-20v700h20z" />
    <glyph glyph-name="Ograve" unicode="&#xd2;" 
d="M388 900h42l60 -110h-22zM439 709q74 0 139.5 -28.5t114 -77t77 -114t28.5 -139.5t-28.5 -139.5t-77 -114.5t-114 -77t-139.5 -28t-139.5 28t-114.5 77t-77 114.5t-28 139.5t28 139.5t77 114t114.5 77t139.5 28.5zM439 689q-71 0 -132.5 -26.5t-107.5 -72.5t-72.5 -108
t-26.5 -132q0 -71 26.5 -132.5t72.5 -107.5t107.5 -72.5t132.5 -26.5q70 0 132 26.5t108 72.5t72.5 107.5t26.5 132.5q0 70 -26.5 132t-72.5 108t-108 72.5t-132 26.5z" />
    <glyph glyph-name="Oacute" unicode="&#xd3;" 
d="M490 900l-80 -110h-22l60 110h42zM439 709q74 0 139.5 -28.5t114 -77t77 -114t28.5 -139.5t-28.5 -139.5t-77 -114.5t-114 -77t-139.5 -28t-139.5 28t-114.5 77t-77 114.5t-28 139.5t28 139.5t77 114t114.5 77t139.5 28.5zM439 689q-71 0 -132.5 -26.5t-107.5 -72.5
t-72.5 -108t-26.5 -132q0 -71 26.5 -132.5t72.5 -107.5t107.5 -72.5t132.5 -26.5q70 0 132 26.5t108 72.5t72.5 107.5t26.5 132.5q0 70 -26.5 132t-72.5 108t-108 72.5t-132 26.5z" />
    <glyph glyph-name="Ocircumflex" unicode="&#xd4;" 
d="M453 900l114 -125h-28l-100 109l-100 -109h-28l114 125h28zM439 709q74 0 139.5 -28.5t114 -77t77 -114t28.5 -139.5t-28.5 -139.5t-77 -114.5t-114 -77t-139.5 -28t-139.5 28t-114.5 77t-77 114.5t-28 139.5t28 139.5t77 114t114.5 77t139.5 28.5zM439 689
q-71 0 -132.5 -26.5t-107.5 -72.5t-72.5 -108t-26.5 -132q0 -71 26.5 -132.5t72.5 -107.5t107.5 -72.5t132.5 -26.5q70 0 132 26.5t108 72.5t72.5 107.5t26.5 132.5q0 70 -26.5 132t-72.5 108t-108 72.5t-132 26.5z" />
    <glyph glyph-name="Otilde" unicode="&#xd5;" 
d="M573 890v-28l-20 -20q-20 -20 -46.5 -16.5t-45.5 14.5l-43 25q-19 11 -36 13t-28 -9l-44 -44v28l30 30q18 18 41.5 15.5t45.5 -15.5l43 -25q17 -10 35 -12.5t32 11.5zM441 708q74 0 139.5 -28.5t114 -77t77 -114t28.5 -139.5t-28.5 -139.5t-77 -114.5t-114 -77
t-139.5 -28t-139.5 28t-114.5 77t-77 114.5t-28 139.5t28 139.5t77 114t114.5 77t139.5 28.5zM441 688q-71 0 -132.5 -26.5t-107.5 -72.5t-72.5 -108t-26.5 -132q0 -71 26.5 -132.5t72.5 -107.5t107.5 -72.5t132.5 -26.5q70 0 132 26.5t108 72.5t72.5 107.5t26.5 132.5
q0 70 -26.5 132t-72.5 108t-108 72.5t-132 26.5z" />
    <glyph glyph-name="Odieresis" unicode="&#xd6;" 
d="M348 868q-9 0 -15 6t-6 15t6 15t15 6t15 -6t6 -15t-6 -15t-15 -6zM529 868q-9 0 -15 6t-6 15t6 15t15 6t15 -6t6 -15t-6 -15t-15 -6zM438 709q74 0 139.5 -28.5t114 -77t77 -114t28.5 -139.5t-28.5 -139.5t-77 -114.5t-114 -77t-139.5 -28t-139.5 28t-114.5 77t-77 114.5
t-28 139.5t28 139.5t77 114t114.5 77t139.5 28.5zM438 689q-71 0 -132.5 -26.5t-107.5 -72.5t-72.5 -108t-26.5 -132q0 -71 26.5 -132.5t72.5 -107.5t107.5 -72.5t132.5 -26.5q70 0 132 26.5t108 72.5t72.5 107.5t26.5 132.5q0 70 -26.5 132t-72.5 108t-108 72.5t-132 26.5z
" />
    <glyph glyph-name="multiply" unicode="&#xd7;" horiz-adv-x="406" 
d="M342 465l14 -14l-139 -139l139 -139l-14 -14l-139 139l-139 -139l-14 14l139 139l-139 139l14 14l139 -139z" />
    <glyph glyph-name="Oslash" unicode="&#xd8;" 
d="M583 676q47 -21 86.5 -54.5t68 -76t44 -92.5t15.5 -105q0 -74 -28.5 -139.5t-77 -114.5t-114 -77t-139.5 -28q-40 0 -77 8.5t-71 24.5l-33 -73h-20l37 81q-43 22 -79 55.5t-61.5 74.5t-39.5 89t-14 100q0 74 28 139.5t77 114t114.5 77t139.5 28.5q68 0 129 -23l29 65h20z
M560 664q-29 11 -59.5 16.5t-62.5 5.5q-71 0 -132.5 -26.5t-107.5 -72.5t-72.5 -108t-26.5 -132q0 -49 13 -94t37 -84t57 -70t74 -52zM298 37q32 -14 67.5 -22t73.5 -8q70 0 132 26.5t108 72.5t72.5 107.5t26.5 132.5q0 52 -14.5 99.5t-41 88t-63.5 72t-82 51.5z" />
    <glyph glyph-name="Ugrave" unicode="&#xd9;" horiz-adv-x="730" 
d="M340 929l60 -110h-22l-80 110h42zM633 700v-449q0 -54 -20.5 -101.5t-56 -82.5t-83 -55.5t-101.5 -20.5t-101.5 20.5t-83 55.5t-56 82.5t-20.5 101.5v449h22v-449q0 -50 18.5 -93t51 -75.5t75.5 -51t93 -18.5q49 0 92.5 18.5t76 51t51 75.5t18.5 93v449h24z" />
    <glyph glyph-name="Uacute" unicode="&#xda;" horiz-adv-x="730" 
d="M421 900l-80 -110h-22l60 110h42zM612 700h21v-449q0 -54 -20.5 -101.5t-56 -82.5t-83 -55.5t-101.5 -20.5t-101.5 20.5t-83 55.5t-56 82.5t-20.5 101.5v449h22v-449q0 -50 18.5 -93t51 -75.5t75.5 -51t93 -18.5q49 0 92.5 18.5t76 51t51 75.5t18.5 93z" />
    <glyph glyph-name="Ucircumflex" unicode="&#xdb;" horiz-adv-x="730" 
d="M384 900l114 -125h-28l-100 109l-100 -109h-28l114 125h28zM612 700h21v-449q0 -54 -20.5 -101.5t-56 -82.5t-83 -55.5t-101.5 -20.5t-101.5 20.5t-83 55.5t-56 82.5t-20.5 101.5v449h22v-449q0 -50 18.5 -93t51 -75.5t75.5 -51t93 -18.5q49 0 92.5 18.5t76 51t51 75.5
t18.5 93z" />
    <glyph glyph-name="Udieresis" unicode="&#xdc;" horiz-adv-x="730" 
d="M279 868q-9 0 -15 6t-6 15t6 15t15 6t15 -6t6 -15t-6 -15t-15 -6zM460 868q-9 0 -15 6t-6 15t6 15t15 6t15 -6t6 -15t-6 -15t-15 -6zM612 700h21v-449q0 -54 -20.5 -101.5t-56 -82.5t-83 -55.5t-101.5 -20.5t-101.5 20.5t-83 55.5t-56 82.5t-20.5 101.5v449h22v-449
q0 -50 18.5 -93t51 -75.5t75.5 -51t93 -18.5q49 0 92.5 18.5t76 51t51 75.5t18.5 93z" />
    <glyph glyph-name="Yacute" unicode="&#xdd;" horiz-adv-x="636" 
d="M369 900l-80 -110h-22l60 110h42zM597 701l-269 -397v-303h-20v303l-268 397h23l255 -380l256 379z" />
    <glyph glyph-name="Thorn" unicode="&#xde;" horiz-adv-x="568" 
d="M130 701v-136h151q43 0 81 -12.5t66 -36.5t44.5 -58.5t16.5 -77.5t-16.5 -77.5t-44.5 -58.5t-66 -36.5t-81 -12.5h-151v-195h-20v700zM283 215q39 0 72.5 11.5t58.5 32.5t39.5 51.5t14.5 69.5t-14.5 69.5t-39.5 51.5t-58.5 32t-72.5 11h-153v-328z" />
    <glyph glyph-name="germandbls" unicode="&#xdf;" horiz-adv-x="678" 
d="M111 526q0 86 62.5 132.5t175.5 47.5q113 -1 175.5 -47.5t62.5 -131.5q0 -65 -39 -107.5t-102 -59.5q34 -9 63 -25t50 -39.5t32.5 -53t11.5 -63.5q0 -46 -19 -79.5t-52 -55.5t-77.5 -32.5t-94.5 -11.5h-169v20h169q47 1 87.5 10.5t70.5 29t47 49.5t17 71q0 39 -16.5 70.5
t-45.5 53.5t-68.5 34t-84.5 11v20q43 1 79.5 12.5t63 32t41.5 49.5t15 66q0 76 -56 117t-162 42q-106 -1 -162 -42t-56 -117v-529h-20z" />
    <glyph glyph-name="agrave" unicode="&#xe0;" horiz-adv-x="558" 
d="M261 717l60 -110h-22l-80 110h42zM96 457q35 29 81 40.5t107 11.5q96 0 148 -53.5t53 -163.5v-292h-20v63q-17 -17 -40 -30t-48.5 -22t-52 -14t-49.5 -5q-100 -1 -151.5 47t-51.5 134q0 81 53.5 130t159.5 49q45 0 91.5 -10t88.5 -38q-3 94 -49 139t-132 45
q-60 0 -102 -10.5t-75 -36.5zM465 286q-16 14 -37.5 23t-46 14.5t-49 8t-46.5 2.5q-99 0 -146.5 -42.5t-47.5 -116.5q0 -78 46 -120t138 -42q22 0 49.5 5t54.5 15t49.5 23t36.5 30z" />
    <glyph glyph-name="aacute" unicode="&#xe1;" horiz-adv-x="558" 
d="M321 717l-80 -110h-22l60 110h42zM96 457q35 29 81 40.5t107 11.5q96 0 148 -53.5t53 -163.5v-292h-20v63q-17 -17 -40 -30t-48.5 -22t-52 -14t-49.5 -5q-100 -1 -151.5 47t-51.5 134q0 81 53.5 130t159.5 49q45 0 91.5 -10t88.5 -38q-3 94 -49 139t-132 45
q-60 0 -102 -10.5t-75 -36.5zM465 286q-16 14 -37.5 23t-46 14.5t-49 8t-46.5 2.5q-99 0 -146.5 -42.5t-47.5 -116.5q0 -78 46 -120t138 -42q22 0 49.5 5t54.5 15t49.5 23t36.5 30z" />
    <glyph glyph-name="acircumflex" unicode="&#xe2;" horiz-adv-x="558" 
d="M284 717l114 -125h-28l-100 109l-100 -109h-28l114 125h28zM96 457q35 29 81 40.5t107 11.5q96 0 148 -53.5t53 -163.5v-292h-20v63q-17 -17 -40 -30t-48.5 -22t-52 -14t-49.5 -5q-100 -1 -151.5 47t-51.5 134q0 81 53.5 130t159.5 49q45 0 91.5 -10t88.5 -38
q-3 94 -49 139t-132 45q-60 0 -102 -10.5t-75 -36.5zM465 286q-16 14 -37.5 23t-46 14.5t-49 8t-46.5 2.5q-99 0 -146.5 -42.5t-47.5 -116.5q0 -78 46 -120t138 -42q22 0 49.5 5t54.5 15t49.5 23t36.5 30z" />
    <glyph glyph-name="atilde" unicode="&#xe3;" horiz-adv-x="558" 
d="M410 708v-28l-20 -20q-20 -20 -46.5 -16.5t-45.5 14.5l-43 25q-19 11 -36 13t-28 -9l-44 -44v28l30 30q18 18 41.5 15.5t45.5 -15.5l43 -25q17 -10 35 -12.5t32 11.5zM98 457q35 29 81 40.5t107 11.5q96 0 148 -53.5t53 -163.5v-292h-20v63q-17 -17 -40 -30t-48.5 -22
t-52 -14t-49.5 -5q-100 -1 -151.5 47t-51.5 134q0 81 53.5 130t159.5 49q45 0 91.5 -10t88.5 -38q-3 94 -49 139t-132 45q-60 0 -102 -10.5t-75 -36.5zM467 286q-16 14 -37.5 23t-46 14.5t-49 8t-46.5 2.5q-99 0 -146.5 -42.5t-47.5 -116.5q0 -78 46 -120t138 -42
q22 0 49.5 5t54.5 15t49.5 23t36.5 30z" />
    <glyph glyph-name="adieresis" unicode="&#xe4;" horiz-adv-x="558" 
d="M179 685q-9 0 -15 6t-6 15t6 15t15 6t15 -6t6 -15t-6 -15t-15 -6zM360 685q-9 0 -15 6t-6 15t6 15t15 6t15 -6t6 -15t-6 -15t-15 -6zM95 457q35 29 81 40.5t107 11.5q96 0 148 -53.5t53 -163.5v-292h-20v63q-17 -17 -40 -30t-48.5 -22t-52 -14t-49.5 -5
q-100 -1 -151.5 47t-51.5 134q0 81 53.5 130t159.5 49q45 0 91.5 -10t88.5 -38q-3 94 -49 139t-132 45q-60 0 -102 -10.5t-75 -36.5zM464 286q-16 14 -37.5 23t-46 14.5t-49 8t-46.5 2.5q-99 0 -146.5 -42.5t-47.5 -116.5q0 -78 46 -120t138 -42q22 0 49.5 5t54.5 15
t49.5 23t36.5 30z" />
    <glyph glyph-name="aring" unicode="&#xe5;" horiz-adv-x="558" 
d="M292 717q18 0 34.5 -7t28.5 -19t19 -28t7 -34q0 -38 -26 -64t-63 -26q-38 0 -63 26t-25 64q0 18 6.5 34t18.5 28t28 19t35 7zM292 697q-29 0 -48.5 -20.5t-19.5 -47.5q0 -29 19.5 -49.5t48.5 -20.5t49 20.5t20 49.5q0 27 -20 47.5t-49 20.5zM95 457q35 29 81 40.5
t107 11.5q96 0 148 -53.5t53 -163.5v-292h-20v63q-17 -17 -40 -30t-48.5 -22t-52 -14t-49.5 -5q-100 -1 -151.5 47t-51.5 134q0 81 53.5 130t159.5 49q45 0 91.5 -10t88.5 -38q-3 94 -49 139t-132 45q-60 0 -102 -10.5t-75 -36.5zM464 286q-16 14 -37.5 23t-46 14.5t-49 8
t-46.5 2.5q-99 0 -146.5 -42.5t-47.5 -116.5q0 -78 46 -120t138 -42q22 0 49.5 5t54.5 15t49.5 23t36.5 30z" />
    <glyph glyph-name="ae" unicode="&#xe6;" horiz-adv-x="1025" 
d="M95 457q35 29 81 40.5t107 11.5q85 0 135.5 -42t62.5 -128q14 37 38 67.5t55.5 53t69 35t79.5 12.5q57 0 101 -19t73 -48t43 -62t11 -62t-24 -48t-62 -19h-379q0 -49 19 -92t52 -75t76.5 -50.5t93.5 -18.5q20 0 41.5 1.5t44 7.5t44 18t41.5 32l15 -14q-21 -22 -44.5 -35
t-47.5 -20t-48 -9t-46 -2q-41 0 -78 12t-68.5 33.5t-56 51t-39.5 64.5v-153h-20v63q-17 -17 -40 -30t-48.5 -22t-52 -14t-49.5 -5q-100 -1 -151.5 47t-51.5 134q0 81 53.5 130t159.5 49q45 0 91.5 -10t88.5 -38q-3 94 -49 139t-132 45q-60 0 -102 -10.5t-75 -36.5zM873 268
q21 0 34.5 9.5t19 24.5t3.5 34.5t-11 39.5q-10 21 -27 40.5t-41.5 35t-56.5 25t-71 9.5q-47 0 -88.5 -17t-73 -46t-51 -69t-23.5 -86h386zM464 285q-16 14 -37.5 23t-46 14.5t-49 8t-46.5 2.5q-99 0 -146.5 -42.5t-47.5 -116.5q0 -78 46 -120t138 -42q22 0 49.5 5t54.5 15
t49.5 23t36.5 30z" />
    <glyph glyph-name="ccedilla" unicode="&#xe7;" horiz-adv-x="574" 
d="M298 -2q-46 7 -85 30t-68 56.5t-45.5 76.5t-16.5 91q0 53 20 100t55 82t82 55t100 20q46 0 87 -15t74 -41l-15 -14q-64 50 -147 50q-50 0 -93 -18.5t-75.5 -51t-51 -76t-18.5 -92.5q0 -50 18.5 -93t51 -75.5t75.5 -51t93 -18.5q83 0 145 50l14 -14q-33 -26 -73.5 -41
t-85.5 -15h-12t-12 1v-31h13q37 0 52.5 -19t15.5 -42q0 -20 -16.5 -39.5t-51.5 -19.5h-70v20h70q27 0 37.5 14t10.5 25q0 14 -9.5 27.5t-38.5 13.5h-33z" />
    <glyph glyph-name="egrave" unicode="&#xe8;" horiz-adv-x="641" 
d="M337 717l60 -110h-22l-80 110h42zM531 58q-21 -22 -44.5 -35t-47.5 -20t-48 -9t-46 -2q-54 0 -101.5 20t-83.5 55t-57 82t-21 100t20 100t55 82t82 55t100 20q57 0 101 -19t73 -48t43 -62t11 -62t-24 -48t-62 -19h-379q0 -49 19 -92t52 -75t76.5 -50.5t93.5 -18.5
q20 0 41.5 1.5t44 7.5t44 18t41.5 32zM489 269q35 0 49 24t7 56q-5 23 -20.5 47.5t-41 44.5t-61.5 33t-82 13q-47 0 -88.5 -17t-73 -46t-51 -69t-23.5 -86h385z" />
    <glyph glyph-name="eacute" unicode="&#xe9;" horiz-adv-x="641" 
d="M397 717l-80 -110h-22l60 110h42zM531 58q-21 -22 -44.5 -35t-47.5 -20t-48 -9t-46 -2q-54 0 -101.5 20t-83.5 55t-57 82t-21 100t20 100t55 82t82 55t100 20q57 0 101 -19t73 -48t43 -62t11 -62t-24 -48t-62 -19h-379q0 -49 19 -92t52 -75t76.5 -50.5t93.5 -18.5
q20 0 41.5 1.5t44 7.5t44 18t41.5 32zM489 270q38 0 51.5 27t2.5 62q-7 22 -23 45t-41.5 41.5t-60.5 30t-78 11.5q-47 0 -88.5 -17t-73 -46t-51 -69t-23.5 -86z" />
    <glyph glyph-name="ecircumflex" unicode="&#xea;" horiz-adv-x="641" 
d="M360 717l114 -125h-28l-100 109l-100 -109h-28l114 125h28zM531 58q-21 -22 -44.5 -35t-47.5 -20t-48 -9t-46 -2q-54 0 -101.5 20t-83.5 55t-57 82t-21 100t20 100t55 82t82 55t100 20q57 0 101 -19t73 -48t43 -62t11 -62t-24 -48t-62 -19h-379q0 -49 19 -92t52 -75
t76.5 -50.5t93.5 -18.5q20 0 41.5 1.5t44 7.5t44 18t41.5 32zM490 269q20 0 33.5 8.5t19.5 22.5t5 32t-9 38q-9 21 -25.5 42t-41.5 37.5t-58 27t-74 10.5q-47 0 -88.5 -17t-73 -46t-51 -69t-23.5 -86h386z" />
    <glyph glyph-name="edieresis" unicode="&#xeb;" horiz-adv-x="641" 
d="M255 685q-9 0 -15 6t-6 15t6 15t15 6t15 -6t6 -15t-6 -15t-15 -6zM436 685q-9 0 -15 6t-6 15t6 15t15 6t15 -6t6 -15t-6 -15t-15 -6zM530 58q-21 -22 -44.5 -35t-47.5 -20t-48 -9t-46 -2q-54 0 -101.5 20t-83.5 55t-57 82t-21 100t20 100t55 82t82 55t100 20
q57 0 101 -19t73 -48t43 -62t11 -62t-24 -48t-62 -19h-379q0 -49 19 -92t52 -75t76.5 -50.5t93.5 -18.5q20 0 41.5 1.5t44 7.5t44 18t41.5 32zM488 269q20 0 33 8t19 21.5t6 31t-7 36.5q-8 22 -24.5 43.5t-41.5 38.5t-58.5 28t-75.5 11q-47 0 -88.5 -17t-73 -46t-51 -69
t-23.5 -86h385z" />
    <glyph glyph-name="igrave" unicode="&#xec;" horiz-adv-x="287" 
d="M95 700h42l60 -110h-22zM156 500v-500h-20v500h20z" />
    <glyph glyph-name="iacute" unicode="&#xed;" horiz-adv-x="287" 
d="M197 700l-80 -110h-22l60 110h42zM156 500v-500h-20v500h20z" />
    <glyph glyph-name="icircumflex" unicode="&#xee;" horiz-adv-x="441" 
d="M237 700l114 -125h-28l-100 109l-100 -109h-28l114 125h28zM233 500v-500h-20v500h20z" />
    <glyph glyph-name="idieresis" unicode="&#xef;" horiz-adv-x="408" 
d="M116 668q-8 0 -14.5 6t-6.5 15t6.5 15t14.5 6q9 0 15 -6t6 -15t-6 -15t-15 -6zM297 668q-9 0 -15 6t-6 15t6 15t15 6t15 -6t6 -15t-6 -15t-15 -6zM216 500v-500h-20v500h20z" />
    <glyph glyph-name="eth" unicode="&#xf0;" horiz-adv-x="655" 
d="M157 752q68 0 129.5 -21.5t111.5 -59.5l87 64l12 -16l-82 -61q80 -68 120.5 -176.5t23.5 -240.5q-7 -52 -26 -97.5t-49.5 -79t-72 -52.5t-93.5 -19q-59 0 -104 21t-75 56.5t-45.5 80.5t-15.5 93t15.5 95.5t45.5 85t75 61t104 23.5q44 0 80 -13.5t64.5 -36t48.5 -53.5
t32 -65q-5 97 -43.5 175.5t-100.5 129.5l-105 -77l-12 16l101 74q-48 35 -104.5 53.5t-120.5 18.5zM317 489q-54 0 -95 -21.5t-68.5 -56t-41.5 -79t-14 -89.5t14 -86.5t41.5 -74t69 -51.5t95.5 -19q47 0 85 17.5t66 48.5t46 73t24 92q0 45 -14.5 89.5t-42 79t-69 56
t-95.5 21.5h-1z" />
    <glyph glyph-name="ntilde" unicode="&#xf1;" horiz-adv-x="589" 
d="M415 698v-28l-20 -20q-20 -20 -46.5 -16.5t-45.5 14.5l-43 25q-19 11 -36 13t-28 -9l-44 -44v28l30 30q18 18 41.5 15.5t45.5 -15.5l43 -25q17 -10 35 -12.5t32 11.5zM114 448q30 23 75 40t96 17q66 0 109 -17t68 -50t35 -81t10 -109v-250h-21v250q0 58 -8.5 102.5
t-31.5 74.5t-62.5 45.5t-100.5 15.5q-47 0 -93.5 -17.5t-77.5 -40.5v-429h-20v500h20z" />
    <glyph glyph-name="ograve" unicode="&#xf2;" horiz-adv-x="675" 
d="M328 700l60 -110h-22l-80 110h42zM338 508q53 0 100 -20t82 -55t55 -82t20 -100t-20 -100t-55 -82t-82 -55t-100 -20t-100 20t-82 55t-55 82t-20 100t20 100t55 82t82 55t100 20zM338 487q-50 0 -93 -18.5t-75.5 -51t-51 -76t-18.5 -92.5q0 -50 18.5 -93t51 -75.5
t75.5 -51t93 -18.5q49 0 92.5 18.5t76 51t51 75.5t18.5 93q0 49 -18.5 92.5t-51 76t-76 51t-92.5 18.5z" />
    <glyph glyph-name="oacute" unicode="&#xf3;" horiz-adv-x="675" 
d="M388 700l-80 -110h-22l60 110h42zM338 508q53 0 100 -20t82 -55t55 -82t20 -100t-20 -100t-55 -82t-82 -55t-100 -20t-100 20t-82 55t-55 82t-20 100t20 100t55 82t82 55t100 20zM338 487q-50 0 -93 -18.5t-75.5 -51t-51 -76t-18.5 -92.5q0 -50 18.5 -93t51 -75.5
t75.5 -51t93 -18.5q49 0 92.5 18.5t76 51t51 75.5t18.5 93q0 49 -18.5 92.5t-51 76t-76 51t-92.5 18.5z" />
    <glyph glyph-name="ocircumflex" unicode="&#xf4;" horiz-adv-x="675" 
d="M351 700l114 -125h-28l-100 109l-100 -109h-28l114 125h28zM338 508q53 0 100 -20t82 -55t55 -82t20 -100t-20 -100t-55 -82t-82 -55t-100 -20t-100 20t-82 55t-55 82t-20 100t20 100t55 82t82 55t100 20zM338 487q-50 0 -93 -18.5t-75.5 -51t-51 -76t-18.5 -92.5
q0 -50 18.5 -93t51 -75.5t75.5 -51t93 -18.5q49 0 92.5 18.5t76 51t51 75.5t18.5 93q0 49 -18.5 92.5t-51 76t-76 51t-92.5 18.5z" />
    <glyph glyph-name="otilde" unicode="&#xf5;" horiz-adv-x="675" 
d="M467 690v-28l-20 -20q-20 -20 -46.5 -16.5t-45.5 14.5l-43 25q-19 11 -36 13t-28 -9l-44 -44v28l30 30q18 18 41.5 15.5t45.5 -15.5l43 -25q17 -10 35 -12.5t32 11.5zM340 506q53 0 100 -20t82 -55t55 -82t20 -100t-20 -100t-55 -82t-82 -55t-100 -20t-100 20t-82 55
t-55 82t-20 100t20 100t55 82t82 55t100 20zM340 485q-50 0 -93 -18.5t-75.5 -51t-51 -76t-18.5 -92.5q0 -50 18.5 -93t51 -75.5t75.5 -51t93 -18.5q49 0 92.5 18.5t76 51t51 75.5t18.5 93q0 49 -18.5 92.5t-51 76t-76 51t-92.5 18.5z" />
    <glyph glyph-name="odieresis" unicode="&#xf6;" horiz-adv-x="675" 
d="M250 668q-9 0 -15 6t-6 15t6 15t15 6t15 -6t6 -15t-6 -15t-15 -6zM431 668q-9 0 -15 6t-6 15t6 15t15 6t15 -6t6 -15t-6 -15t-15 -6zM338 508q53 0 100 -20t82 -55t55 -82t20 -100t-20 -100t-55 -82t-82 -55t-100 -20t-100 20t-82 55t-55 82t-20 100t20 100t55 82t82 55
t100 20zM338 487q-50 0 -93 -18.5t-75.5 -51t-51 -76t-18.5 -92.5q0 -50 18.5 -93t51 -75.5t75.5 -51t93 -18.5q49 0 92.5 18.5t76 51t51 75.5t18.5 93q0 49 -18.5 92.5t-51 76t-76 51t-92.5 18.5z" />
    <glyph glyph-name="divide" unicode="&#xf7;" horiz-adv-x="514" 
d="M258 445q9 0 15 -6t6 -15t-6 -15t-15 -6t-15 6t-6 15t6 15t15 6zM464 267v-20h-414v20h414zM257 109q9 0 15 -6t6 -15t-6 -15t-15 -6t-15 6t-6 15t6 15t15 6z" />
    <glyph glyph-name="oslash" unicode="&#xf8;" horiz-adv-x="675" 
d="M445 482q33 -15 60.5 -39t47 -54t30.5 -65.5t11 -74.5q0 -53 -20 -100t-55 -82t-82 -55t-100 -20t-102 22l-28 -63h-20l32 71q-63 32 -101 93t-38 136q0 53 20 100t55 82t82 55t100 20q48 0 93 -17l27 59h20zM421 472q-39 15 -84 15q-50 0 -93 -18.5t-75.5 -51t-51 -76
t-18.5 -92.5q0 -69 34.5 -125t91.5 -86zM243 31q46 -19 94 -19q49 0 92.5 18.5t76 51t51 75.5t18.5 93q0 72 -38 129t-99 86z" />
    <glyph glyph-name="ugrave" unicode="&#xf9;" horiz-adv-x="603" 
d="M290 717l60 -110h-22l-80 110h42zM511 501v-500h-20v75q-41 -41 -91 -62t-105 -21q-64 0 -105 17t-64.5 50t-32.5 80.5t-9 109.5v250h21v-250q0 -58 8 -102.5t29 -74.5t58.5 -45.5t96.5 -15.5q50 0 102 21t94 63v403z" />
    <glyph glyph-name="uacute" unicode="&#xfa;" horiz-adv-x="603" 
d="M350 717l-80 -110h-22l60 110h42zM511 501v-500h-20v75q-41 -41 -91 -62t-105 -21q-64 0 -105 17t-64.5 50t-32.5 80.5t-9 109.5v250h21v-250q0 -58 8 -102.5t29 -74.5t58.5 -45.5t96.5 -15.5q50 0 102 21t94 63v403z" />
    <glyph glyph-name="ucircumflex" unicode="&#xfb;" horiz-adv-x="603" 
d="M313 717l114 -125h-28l-100 109l-100 -109h-28l114 125h28zM511 501v-500h-20v75q-41 -41 -91 -62t-105 -21q-64 0 -105 17t-64.5 50t-32.5 80.5t-9 109.5v250h21v-250q0 -58 8 -102.5t29 -74.5t58.5 -45.5t96.5 -15.5q50 0 102 21t94 63v403z" />
    <glyph glyph-name="udieresis" unicode="&#xfc;" horiz-adv-x="603" 
d="M208 633q9 0 15 -6t6 -15t-6 -15t-15 -6t-15 6t-6 15t6 15t15 6zM389 633q9 0 15 -6t6 -15t-6 -15t-15 -6t-15 6t-6 15t6 15t15 6zM511 502v-500h-20v75q-41 -41 -91 -62t-105 -21q-64 0 -105 17t-64.5 50t-32.5 80.5t-9 109.5v250h21v-250q0 -58 8 -102.5t29 -74.5
t58.5 -45.5t96.5 -15.5q50 0 102 21t94 63v403z" />
    <glyph glyph-name="yacute" unicode="&#xfd;" horiz-adv-x="589" 
d="M336 700l-80 -110h-22l60 110h42zM495 500v-467q-2 -56 -14.5 -93.5t-36.5 -60.5t-61.5 -32.5t-89.5 -9.5q-34 0 -61 3t-49.5 9t-41 16t-36.5 24l13 16q33 -27 72 -37.5t104 -10.5q49 0 83 8t55.5 28.5t32 54.5t12.5 86v25q-30 -23 -75 -40t-96 -17q-66 0 -109 17t-68 50
t-35 80.5t-10 109.5v242h21v-242q0 -58 8.5 -102.5t31.5 -74.5t62 -45.5t101 -15.5q47 0 93.5 17.5t77.5 40.5v421h16z" />
    <glyph glyph-name="thorn" unicode="&#xfe;" horiz-adv-x="584" 
d="M110 698v-241q31 23 72 36.5t84 13.5q64 0 109 -16.5t73.5 -48.5t41 -80t12.5 -112q0 -62 -13 -110t-41 -81t-73 -50t-109 -17q-42 0 -78.5 11t-77.5 37v-247h-20v907zM111 57q12 -10 30 -19t39 -15.5t44 -10t44 -3.5q60 0 101.5 15.5t67 45.5t37 74.5t11.5 102.5
q0 60 -11 104.5t-36.5 74.5t-67 44.5t-102.5 14.5q-21 0 -44 -4t-44 -10.5t-39.5 -16t-30.5 -20.5z" />
    <glyph glyph-name="ydieresis" unicode="&#xff;" horiz-adv-x="589" 
d="M194 668q-9 0 -15 6t-6 15t6 15t15 6t15 -6t6 -15t-6 -15t-15 -6zM375 668q-9 0 -15 6t-6 15t6 15t15 6t15 -6t6 -15t-6 -15t-15 -6zM495 500v-467q-2 -56 -14.5 -93.5t-36.5 -60.5t-61.5 -32.5t-89.5 -9.5q-34 0 -61 3t-49.5 9t-41 16t-36.5 24l13 16q33 -27 72 -37.5
t104 -10.5q49 0 83 8t55.5 28.5t32 54.5t12.5 86v25q-30 -23 -75 -40t-96 -17q-66 0 -109 17t-68 50t-35 80.5t-10 109.5v242h21v-242q0 -58 8.5 -102.5t31.5 -74.5t62 -45.5t101 -15.5q47 0 93.5 17.5t77.5 40.5v421h16z" />
    <glyph glyph-name="dotlessi" unicode="&#x131;" horiz-adv-x="205" 
d="M115 500v-500h-20v500h20z" />
    <glyph glyph-name="OE" unicode="&#x152;" horiz-adv-x="1104" 
d="M630 46q-42 -26 -89.5 -40.5t-100.5 -14.5q-74 0 -139.5 28t-114.5 77t-77 114.5t-28 139.5t28 139.5t77 114t114.5 77t139.5 28.5q53 0 100.5 -14.5t89.5 -40.5v46h419v-20h-399v-302h399v-20h-399v-338h399v-20h-419v46zM630 631q-41 28 -89 43t-102 15
q-71 0 -132.5 -26.5t-107.5 -72.5t-72.5 -108t-26.5 -132q0 -71 26.5 -132.5t72.5 -107.5t107.5 -72.5t132.5 -26.5q54 0 102 15t89 43v562z" />
    <glyph glyph-name="oe" unicode="&#x153;" horiz-adv-x="1152" 
d="M1054 76q-35 -45 -89 -64t-129 -19q-44 0 -84 14t-72.5 39t-56 59t-35.5 75q-12 -41 -35.5 -75t-56 -59t-72.5 -39t-84 -14q-53 0 -100 20t-82 55t-55 82t-20 100t20 100t55 82t82 55t100 20q44 0 84 -14t72.5 -39t56 -59.5t35.5 -74.5q12 40 35.5 74.5t56 59.5t72.5 39
t84 14q60 0 106.5 -19t78 -48t46 -62t12 -62t-23.5 -48t-62 -19h-394q0 -49 18.5 -92t50.5 -75t75 -50.5t92 -18.5q71 0 121.5 17t82.5 59zM339 488q-50 0 -93 -18.5t-75.5 -51t-51 -76t-18.5 -92.5q0 -50 18.5 -93t51 -75.5t75.5 -51t93 -18.5q49 0 92.5 18.5t76 51
t51 75.5t18.5 93q0 49 -18.5 92.5t-51 76t-76 51t-92.5 18.5zM1000 268q29 0 43.5 16t14.5 40.5t-14 53t-42 53t-70 40.5t-97 16q-47 0 -88.5 -17t-73 -46t-51 -69t-23.5 -86z" />
    <glyph glyph-name="Scaron" unicode="&#x160;" horiz-adv-x="499" 
d="M376 900l-114 -125h-28l-114 125h28l100 -109l100 109h28zM250 350q-102 24 -151 73t-49 116q0 45 17.5 77t46 52.5t64.5 30t72 9.5q45 1 84.5 -10.5t62.5 -31.5l-15 -15q-20 18 -55 28t-75 9q-33 0 -65 -8.5t-57.5 -26t-41.5 -45.5t-16 -68q0 -119 175 -167l45 -13
q44 -15 74 -33t48.5 -41.5t26.5 -52t8 -64.5q0 -46 -19.5 -80t-51.5 -56t-72 -32.5t-81 -10.5q-51 0 -97 16t-72 48l15 15q24 -29 65.5 -43.5t88.5 -14.5q37 0 73.5 9.5t65 29t46.5 49t18 69.5q0 33 -7 59t-23.5 46.5t-43.5 37t-67 30.5z" />
    <glyph glyph-name="scaron" unicode="&#x161;" horiz-adv-x="379" 
d="M315 717l-114 -125h-28l-114 125h28l100 -109l100 109h28zM65 48q33 -25 62 -33.5t53 -8.5q27 0 50.5 8.5t41 23.5t27.5 35t10 43t-5 42.5t-18 36t-36 30t-60 24.5q-40 10 -66.5 23.5t-42.5 31t-22.5 39t-6.5 45.5q0 28 11.5 50t30.5 37t43 23t50 8q28 0 55.5 -7
t52.5 -21l-16 -15q-24 13 -47 18t-46 5q-21 0 -41.5 -6t-36.5 -18t-26 -30t-10 -41q0 -21 5.5 -39t18.5 -32t35 -25.5t55 -20.5q80 -20 111.5 -57.5t31.5 -97.5q0 -28 -11.5 -51.5t-31.5 -41t-47 -27t-59 -9.5q-29 0 -61.5 9t-68.5 38z" />
    <glyph glyph-name="Ydieresis" unicode="&#x178;" horiz-adv-x="636" 
d="M227 868q-9 0 -15 6t-6 15t6 15t15 6t15 -6t6 -15t-6 -15t-15 -6zM408 868q-9 0 -15 6t-6 15t6 15t15 6t15 -6t6 -15t-6 -15t-15 -6zM596 701l-269 -397v-303h-20v303l-268 397h23l255 -380l256 379z" />
    <glyph glyph-name="Zcaron" unicode="&#x17d;" horiz-adv-x="569" 
d="M403 900l-114 -125h-28l-114 125h28l100 -109l100 109h28zM509 700v-20l-430 -660h435v-20h-459v20l429 660h-414v20h439z" />
    <glyph glyph-name="zcaron" unicode="&#x17e;" horiz-adv-x="430" 
d="M340 700l-114 -125h-28l-114 125h28l100 -109l100 109h28zM380 20v-20h-331v20l303 460h-290v20h314v-20l-303 -460h307z" />
    <glyph glyph-name="florin" unicode="&#x192;" horiz-adv-x="316" 
d="M267 749l-2 -20h-7q-28 0 -45.5 -7.5t-27.5 -24.5t-15 -46t-9 -72l-8 -79h91l-2 -21h-90l-58 -642h-21l58 642h-81l1 21h82l7 77q4 42 9.5 74.5t17 54.5t30.5 33t51 11z" />
    <glyph glyph-name="circumflex" unicode="&#x2c6;" horiz-adv-x="356" 
d="M192 700l114 -125h-28l-100 109l-100 -109h-28l114 125h28z" />
    <glyph glyph-name="tilde" unicode="&#x2dc;" horiz-adv-x="361" 
d="M313 690v-28l-20 -20q-20 -20 -46.5 -16.5t-45.5 14.5l-43 25q-19 11 -36 13t-28 -9l-44 -44v28l30 30q18 18 41.5 15.5t45.5 -15.5l43 -25q17 -10 35 -12.5t32 11.5z" />
    <glyph glyph-name="endash" unicode="&#x2013;" horiz-adv-x="472" 
d="M422 279v-20h-372v20h372z" />
    <glyph glyph-name="emdash" unicode="&#x2014;" horiz-adv-x="640" 
d="M590 279v-20h-540v20h540z" />
    <glyph glyph-name="quoteleft" unicode="&#x2018;" horiz-adv-x="143" 
d="M93 710q-8 -6 -12 -12t-6 -11q17 -3 17 -21q0 -9 -6 -15t-15 -6t-15 6t-6 15q0 6 2 13t7 14t13.5 11.5t21.5 4.5z" />
    <glyph glyph-name="quoteright" unicode="&#x2019;" horiz-adv-x="143" 
d="M73 708q9 0 15 -6t6 -15q0 -6 -2 -13t-6.5 -14t-13 -11.5t-21.5 -4.5q8 6 12 12t6 11q-17 3 -17 21q0 9 6 15t15 6v-1z" />
    <glyph glyph-name="quotesinglbase" unicode="&#x201a;" horiz-adv-x="143" 
d="M73 31q9 0 15 -6t6 -15q0 -6 -2 -13t-6.5 -14t-13 -11.5t-21.5 -4.5q8 6 12 11.5t6 10.5q-17 3 -17 21q0 9 6 15t15 6z" />
    <glyph glyph-name="quotedblleft" unicode="&#x201c;" horiz-adv-x="225" 
d="M93 710q-8 -6 -12 -12t-6 -11q17 -3 17 -21q0 -9 -6 -15t-15 -6t-15 6t-6 15q0 6 2 13t7 14t13.5 11.5t21.5 4.5zM174 711q-8 -6 -12 -12t-6 -11q17 -3 17 -21q0 -9 -6 -15t-15 -6t-15 6t-6 15q0 6 2 13t7 14t13.5 11.5t21.5 4.5z" />
    <glyph glyph-name="quotedblright" unicode="&#x201d;" horiz-adv-x="225" 
d="M72 709q9 0 15 -6t6 -15q0 -6 -2 -13t-6.5 -14t-13 -11.5t-21.5 -4.5q8 6 12.5 12t6.5 11q-17 3 -17 20q0 9 6 15t15 6h-1zM153 709q9 0 15 -6t6 -15q0 -6 -2 -13t-6.5 -14t-13 -11.5t-21.5 -4.5q8 6 12.5 12t6.5 11q-17 3 -17 20q0 9 6 15t15 6h-1z" />
    <glyph glyph-name="quotedblbase" unicode="&#x201e;" horiz-adv-x="225" 
d="M72 35q9 0 15 -6t6 -15q0 -6 -2 -13t-6.5 -14t-13 -11.5t-21.5 -4.5q8 6 12.5 11.5t6.5 10.5q-17 3 -17 20q0 9 6 15t15 6zM153 36q9 0 15 -6t6 -15q0 -6 -2 -13t-6.5 -14t-13 -11.5t-21.5 -4.5q8 6 12.5 11.5t6.5 10.5q-17 3 -17 20q0 9 6 15t15 6z" />
    <glyph glyph-name="dagger" unicode="&#x2020;" horiz-adv-x="348" 
d="M184 700v-201h114v-20h-114v-539h-20v539h-114v20h114v201h20z" />
    <glyph glyph-name="daggerdbl" unicode="&#x2021;" horiz-adv-x="348" 
d="M184 700v-201h114v-20h-114v-318h114v-20h-114v-201h-20v201h-114v20h114v318h-114v20h114v201h20z" />
    <glyph glyph-name="bullet" unicode="&#x2022;" horiz-adv-x="318" 
d="M159 420q23 0 43 -8.5t34.5 -23t23 -34.5t8.5 -42q0 -23 -8.5 -43t-23 -34.5t-34.5 -23t-43 -8.5t-43 8.5t-34.5 23t-23 34.5t-8.5 43q0 22 8.5 42t23 34.5t34.5 23t43 8.5z" />
    <glyph glyph-name="ellipsis" unicode="&#x2026;" horiz-adv-x="482" 
d="M71 32q9 0 15 -6t6 -15t-6 -15t-15 -6t-15 6t-6 15t6 15t15 6zM241 32q9 0 15 -6t6 -15t-6 -15t-15 -6t-15 6t-6 15t6 15t15 6zM411 32q9 0 15 -6t6 -15t-6 -15t-15 -6t-15 6t-6 15t6 15t15 6z" />
    <glyph glyph-name="perthousand" unicode="&#x2030;" horiz-adv-x="1035" 
d="M194 709q28 0 53 -10.5t43.5 -29t29 -43.5t10.5 -53t-10.5 -53t-29 -43.5t-43.5 -29t-53 -10.5t-53 10.5t-43.5 29t-29 43.5t-10.5 53t10.5 53t29 43.5t43.5 29t53 10.5zM580 700l-435 -700h-24l435 700h24zM192 686q-51 0 -83 -32t-32 -83q0 -25 8.5 -46.5t24 -37
t36.5 -24t47 -8.5q51 0 83.5 33t32.5 84t-32 83.5t-83 32.5zM504 261q28 0 53 -10.5t43.5 -29t29 -43.5t10.5 -53t-10.5 -53t-29 -43.5t-43.5 -29t-53 -10.5t-53 10.5t-43.5 29t-29 43.5t-10.5 53t10.5 53t29 43.5t43.5 29t53 10.5zM810 261q28 0 53 -10.5t43.5 -29
t29 -43.5t10.5 -53t-10.5 -53t-29 -43.5t-43.5 -29t-53 -10.5t-53 10.5t-43.5 29t-29 43.5t-10.5 53t10.5 53t29 43.5t43.5 29t53 10.5zM502 238q-51 0 -83 -32t-32 -83q0 -25 8.5 -46.5t24 -37t36.5 -24t47 -8.5q51 0 83.5 33t32.5 84t-32 83.5t-83 32.5zM806 236
q-51 0 -83 -32t-32 -83q0 -25 8.5 -46.5t24 -37t36.5 -24t47 -8.5q51 0 83.5 33t32.5 84t-32 83.5t-83 32.5z" />
    <glyph glyph-name="guilsinglleft" unicode="&#x2039;" horiz-adv-x="216" 
d="M166 383v-26l-100 -79l100 -78v-26l-116 92v25z" />
    <glyph glyph-name="guilsinglright" unicode="&#x203a;" horiz-adv-x="216" 
d="M50 383l116 -92v-25l-116 -92v26l100 78l-100 79v26z" />
    <glyph glyph-name="Euro" unicode="&#x20ac;" horiz-adv-x="882" 
d="M273 272q13 -56 43.5 -104t74 -83t98 -54.5t114.5 -19.5t112.5 18.5t95.5 51.5l14 -14q-46 -36 -102.5 -56.5t-119.5 -20.5q-65 0 -122.5 21.5t-104 59t-79 89t-45.5 111.5h-152l20 20h129q-2 14 -3.5 28.5t-1.5 29.5t1.5 30t3.5 30h-147l22 20h129q13 60 45.5 111
t79 88.5t104 58.5t121.5 21t121 -20.5t103 -57.5l-14 -14q-44 35 -97.5 54t-113.5 19t-114 -19.5t-97 -54t-74 -82t-44 -103.5h462l-20 -20h-446q-2 -14 -3.5 -29t-1.5 -31q0 -15 1.5 -29.5t3.5 -28.5h329l-20 -20h-305z" />
    <glyph glyph-name="trademark" unicode="&#x2122;" horiz-adv-x="854" 
d="M805 700v-407h-21v377l-188 -240l-188 240v-377h-21v407h21l188 -241l188 241h21zM343 700v-21h-136v-386h-21v386h-136v21h293z" />
    </font>
</defs>
</svg>
