<svg xmlns="http://www.w3.org/2000/svg" width="5184" viewBox="0 0 5184 720" height="720" version="1.0"><path fill="#006837" d="M 5228.941406 521.574219 C 5228.941406 547.148438 5228.941406 559.703125 5228.941406 560.167969 C 5180.585938 585.277344 5131.300781 543.894531 5082.011719 536.453125 C 5032.261719 553.660156 4982.511719 542.964844 4933.226562 551.332031 C 4883.941406 541.570312 4835.121094 552.261719 4787.230469 557.84375 C 4739.339844 583.882812 4692.84375 562.027344 4648.210938 582.023438 C 4607.292969 617.828125 4559.867188 588.066406 4511.976562 609.457031 C 4464.085938 546.683594 4416.195312 595.042969 4374.351562 603.410156 C 4344.59375 633.636719 4321.808594 580.628906 4292.519531 566.679688 C 4260.902344 515.996094 4227.425781 563.421875 4194.875 551.332031 C 4131.179688 491.816406 4073.523438 439.738281 4010.753906 496 C 3946.589844 444.386719 3934.5 446.246094 3875.917969 417.882812 C 3846.625 395.097656 3812.683594 369.058594 3778.277344 362.550781 C 3770.371094 362.085938 3762.933594 361.621094 3755.027344 361.621094 C 3741.542969 363.015625 3728.527344 368.128906 3715.507812 377.894531 C 3660.175781 358.363281 3635.070312 480.191406 3585.320312 424.390625 C 3548.585938 428.113281 3510.925781 401.144531 3473.730469 436.945312 C 3438.394531 441.132812 3396.546875 497.394531 3354.234375 453.6875 C 3311.925781 460.660156 3269.613281 436.945312 3233.347656 442.992188 C 3184.0625 404.863281 3133.847656 429.507812 3081.304688 407.652344 C 3024.582031 366.269531 2965.53125 318.839844 2910.667969 404.863281 C 2858.128906 386.730469 2826.046875 373.242188 2773.039062 356.039062 C 2737.703125 359.757812 2700.507812 327.210938 2665.171875 356.96875 C 2625.183594 367.664062 2584.734375 354.644531 2544.746094 356.96875 C 2504.761719 411.371094 2464.308594 383.007812 2424.324219 356.96875 C 2371.78125 382.542969 2255.542969 377.894531 2207.652344 354.179688 C 2175.570312 423.925781 2156.507812 509.019531 2130.003906 426.253906 C 2103.039062 469.960938 2065.84375 356.503906 2036.085938 483.445312 C 1994.238281 538.777344 1950.996094 508.089844 1906.828125 517.855469 C 1862.65625 482.050781 1817.554688 577.371094 1771.058594 516.925781 C 1733.398438 515.996094 1686.902344 480.191406 1651.566406 518.785156 C 1621.808594 523.433594 1605.070312 521.109375 1566.011719 538.777344 C 1504.175781 496.929688 1449.773438 531.804688 1386.539062 562.957031 C 1353.992188 582.953125 1318.191406 567.609375 1286.109375 561.5625 C 1227.527344 563.886719 1176.84375 556.914062 1116.402344 585.277344 C 1059.675781 621.082031 1006.207031 588.996094 955.992188 571.328125 C 903.914062 610.851562 854.164062 523.898438 805.808594 506.230469 C 767.683594 531.804688 751.410156 383.9375 707.703125 417.882812 C 665.859375 442.992188 622.152344 470.890625 579.375 404.863281 C 522.1875 401.144531 477.085938 347.203125 433.378906 336.976562 C 389.675781 282.570312 347.363281 236.074219 296.21875 247.234375 C 242.75 171.441406 180.445312 275.597656 125.578125 244.90625 C 80.011719 210.5 43.746094 206.3125 6.085938 193.757812 C -25.53125 220.730469 -43.664062 97.042969 -43.664062 97.042969 L -43.664062 46.824219 C -44.128906 46.824219 -44.59375 46.824219 -45.058594 46.824219 L -45.058594 1903.976562 L 5228.941406 1903.976562 Z M 5228.941406 521.574219"/><path fill="#C69C6D" d="M 1116.402344 585.277344 C 1176.84375 556.914062 1227.527344 563.886719 1286.109375 561.5625 C 1318.191406 567.609375 1353.992188 582.953125 1386.539062 562.957031 C 1449.773438 531.804688 1504.175781 496.929688 1566.015625 538.777344 C 1605.070312 521.109375 1621.808594 523.433594 1651.566406 518.785156 C 1686.902344 480.191406 1733.398438 515.996094 1771.058594 516.925781 C 1817.554688 577.371094 1862.65625 482.050781 1906.828125 517.855469 C 1950.996094 508.089844 1994.238281 538.777344 2036.085938 483.445312 C 2065.84375 356.503906 2103.039062 469.960938 2130.007812 426.253906 C 2156.507812 509.019531 2175.570312 423.925781 2207.652344 354.179688 C 2255.542969 377.894531 2371.785156 382.542969 2424.324219 356.96875 C 2464.308594 383.007812 2504.761719 411.371094 2544.746094 356.96875 C 2584.734375 354.644531 2625.183594 367.664062 2665.171875 356.96875 C 2700.507812 327.210938 2737.703125 359.757812 2773.039062 356.039062 C 2826.046875 373.242188 2858.128906 386.730469 2910.667969 404.863281 C 2965.53125 318.839844 3024.582031 366.269531 3081.308594 407.652344 C 3133.847656 429.507812 3184.0625 404.863281 3233.347656 442.992188 C 3269.613281 436.945312 3311.925781 460.660156 3354.238281 453.6875 C 3396.546875 497.394531 3438.394531 441.132812 3473.730469 436.945312 C 3510.925781 401.144531 3548.589844 428.113281 3585.320312 424.390625 C 3635.070312 480.191406 3660.175781 358.363281 3715.507812 377.894531 C 3769.441406 336.046875 3828.957031 381.148438 3875.917969 417.882812 C 3934.5 446.246094 3946.589844 444.386719 4010.753906 496 C 4073.523438 439.738281 4131.179688 491.816406 4194.878906 551.332031 C 4227.425781 563.421875 4260.902344 515.996094 4292.519531 566.679688 C 4321.808594 580.628906 4344.59375 633.636719 4374.351562 603.410156 C 4416.195312 595.042969 4464.085938 546.683594 4511.976562 609.457031 C 4559.867188 588.066406 4607.292969 617.828125 4648.210938 582.023438 C 4692.84375 562.027344 4739.339844 583.882812 4787.230469 557.84375 C 4835.121094 552.261719 4883.941406 541.570312 4933.226562 551.332031 C 4982.511719 542.964844 5032.265625 553.660156 5082.015625 536.453125 C 5131.300781 543.894531 5180.585938 585.277344 5228.941406 560.167969 C 5228.941406 559.238281 5228.941406 523.433594 5228.941406 445.316406 L 5228.941406 444.386719 C 5187.09375 364.410156 5145.246094 419.277344 5103.867188 444.386719 C 5059.695312 443.457031 5010.410156 496.464844 4967.167969 445.78125 C 4917.417969 426.71875 4878.828125 411.371094 4827.21875 422.53125 C 4764.914062 477.867188 4708.652344 380.21875 4654.253906 390.914062 C 4599.855469 336.046875 4546.382812 358.363281 4489.660156 330.929688 C 4442.699219 297.453125 4402.710938 304.890625 4363.191406 311.402344 C 4323.667969 389.519531 4284.613281 281.175781 4238.582031 329.070312 C 4197.667969 359.757812 4140.476562 396.027344 4084.683594 337.441406 C 4028.886719 397.421875 3974.488281 322.09375 3938.6875 308.144531 C 3868.476562 298.382812 3801.988281 281.640625 3724.804688 284.433594 C 3663.898438 286.292969 3612.285156 215.613281 3561.140625 209.570312 C 3509.996094 170.976562 3458.851562 93.324219 3399.800781 130.058594 C 3361.210938 131.453125 3319.828125 107.273438 3277.984375 121.6875 C 3236.136719 109.597656 3194.289062 120.757812 3155.234375 125.40625 C 3105.484375 104.484375 3058.523438 152.839844 3012.027344 119.828125 C 2965.066406 160.746094 2918.570312 133.777344 2869.75 104.949219 C 2831.625 132.382812 2804.65625 13.808594 2775.367188 86.347656 C 2733.984375 150.515625 2706.085938 67.75 2660.054688 55.660156 C 2590.3125 109.132812 2601.007812 93.789062 2552.1875 127.730469 C 2514.988281 213.289062 2476.863281 147.261719 2431.296875 148.191406 C 2393.171875 131.453125 2355.042969 144.472656 2316.917969 147.726562 C 2278.792969 181.207031 2240.664062 125.871094 2202.539062 148.191406 C 2123.960938 160.28125 2079.789062 177.949219 2021.207031 193.761719 C 1990.519531 225.84375 1962.15625 233.75 1931.003906 263.042969 C 1899.851562 310.472656 1865.445312 253.277344 1823.601562 303.03125 C 1758.042969 306.285156 1691.550781 256.53125 1627.855469 318.839844 C 1585.078125 330 1549.742188 340.230469 1504.640625 330 C 1457.214844 370.917969 1409.789062 276.992188 1362.363281 330 C 1314.9375 316.515625 1267.511719 363.945312 1220.085938 330.464844 C 1178.707031 344.878906 1141.042969 356.039062 1103.847656 323.027344 C 1066.652344 314.65625 1029.453125 285.363281 989.46875 307.214844 C 961.105469 314.65625 939.253906 362.550781 911.820312 290.011719 C 872.300781 284.433594 834.171875 258.394531 795.117188 285.828125 C 771.40625 253.742188 728.164062 230.957031 706.3125 258.394531 C 674.230469 288.152344 658.421875 210.5 627.734375 183.53125 C 596.582031 102.621094 553.339844 144.9375 509.167969 165.394531 C 464.535156 197.015625 418.96875 197.945312 382.234375 166.324219 C 283.199219 101.691406 185.558594 108.667969 90.707031 73.792969 C -4.144531 87.277344 43.28125 -33.152344 -43.664062 -30.363281 L -43.664062 97.042969 C -43.664062 97.042969 -25.53125 220.730469 6.085938 193.757812 C 43.746094 206.3125 80.015625 210.5 125.578125 244.90625 C 180.445312 275.597656 242.75 171.441406 296.21875 247.234375 C 347.363281 236.074219 389.675781 282.570312 433.378906 336.976562 C 477.085938 347.203125 522.1875 401.144531 579.375 404.863281 C 622.152344 470.890625 665.859375 442.992188 707.703125 417.882812 C 751.410156 383.9375 767.683594 531.804688 805.808594 506.230469 C 854.164062 523.898438 903.914062 610.851562 955.992188 571.328125 C 1006.207031 588.996094 1059.675781 621.082031 1116.402344 585.277344 Z M 1116.402344 585.277344"/></svg>