<svg xmlns="http://www.w3.org/2000/svg" width="5184" viewBox="0 0 5184 720" height="720" version="1.0"><path fill="#006837" d="M -89.886719 164.082031 C -89.886719 138.507812 -89.886719 125.953125 -89.886719 125.488281 C -41.53125 100.378906 7.753906 141.765625 57.039062 149.203125 C 106.789062 132 156.539062 142.695312 205.824219 134.324219 C 255.109375 144.089844 303.933594 133.394531 351.820312 127.816406 C 399.710938 101.777344 446.207031 123.628906 490.84375 103.636719 C 531.761719 67.832031 579.1875 97.589844 627.078125 76.203125 C 674.96875 138.972656 722.855469 90.617188 764.703125 82.246094 C 794.460938 52.023438 817.242188 105.03125 846.535156 118.980469 C 878.152344 169.664062 911.628906 122.234375 944.175781 134.324219 C 1007.875 193.84375 1065.53125 245.921875 1128.300781 189.65625 C 1192.464844 241.269531 1204.550781 239.410156 1263.136719 267.773438 C 1292.429688 290.558594 1326.371094 316.597656 1360.777344 323.109375 C 1368.683594 323.574219 1376.121094 324.039062 1384.023438 324.039062 C 1397.507812 322.644531 1410.527344 317.527344 1423.546875 307.765625 C 1478.875 327.292969 1503.984375 205.46875 1553.734375 261.265625 C 1590.464844 257.546875 1628.128906 284.515625 1665.324219 248.710938 C 1700.660156 244.527344 1742.507812 188.261719 1784.816406 231.972656 C 1827.128906 224.996094 1869.441406 248.710938 1905.707031 242.667969 C 1954.992188 280.792969 2005.207031 256.152344 2057.746094 278.003906 C 2114.472656 319.390625 2173.519531 366.816406 2228.386719 280.792969 C 2280.925781 298.929688 2313.007812 312.414062 2366.011719 329.617188 C 2401.347656 325.898438 2438.546875 358.449219 2473.882812 328.6875 C 2513.867188 317.992188 2554.320312 331.011719 2594.308594 328.6875 C 2634.292969 274.285156 2674.742188 302.648438 2714.730469 328.6875 C 2767.269531 303.113281 2883.507812 307.765625 2931.398438 331.476562 C 2963.480469 261.730469 2982.546875 176.636719 3009.046875 259.40625 C 3036.015625 215.695312 3073.210938 329.152344 3102.96875 202.210938 C 3144.816406 146.878906 3188.054688 177.566406 3232.226562 167.804688 C 3276.398438 203.605469 3321.5 108.285156 3367.992188 168.734375 C 3405.65625 169.664062 3452.152344 205.46875 3487.488281 166.875 C 3517.246094 162.222656 3533.984375 164.546875 3573.039062 146.878906 C 3634.878906 188.726562 3689.277344 153.855469 3752.511719 122.699219 C 3785.058594 102.707031 3820.863281 118.050781 3852.945312 124.09375 C 3911.527344 121.769531 3962.207031 128.746094 4022.652344 100.378906 C 4079.378906 64.578125 4132.847656 96.660156 4183.0625 114.332031 C 4235.136719 74.804688 4284.886719 161.757812 4333.242188 179.429688 C 4371.371094 153.855469 4387.644531 301.71875 4431.347656 267.773438 C 4473.195312 242.667969 4516.902344 214.765625 4559.675781 280.792969 C 4616.867188 284.515625 4661.96875 338.453125 4705.671875 348.683594 C 4749.378906 403.085938 4791.691406 449.585938 4842.835938 438.425781 C 4896.304688 514.21875 4958.609375 410.0625 5013.472656 440.75 C 5059.039062 475.160156 5095.304688 479.34375 5132.96875 491.898438 C 5164.585938 464.929688 5182.71875 588.613281 5182.71875 588.613281 L 5182.71875 638.832031 C 5183.183594 638.832031 5183.648438 638.832031 5184.113281 638.832031 L 5184.113281 -1218.316406 L -89.886719 -1218.316406 Z M -89.886719 164.082031"/><path fill="#C69C6D" d="M 4022.652344 100.378906 C 3962.207031 128.746094 3911.527344 121.769531 3852.941406 124.09375 C 3820.859375 118.050781 3785.058594 102.707031 3752.511719 122.699219 C 3689.277344 153.855469 3634.878906 188.726562 3573.039062 146.878906 C 3533.984375 164.546875 3517.246094 162.222656 3487.488281 166.875 C 3452.152344 205.46875 3405.65625 169.664062 3367.992188 168.734375 C 3321.5 108.285156 3276.398438 203.605469 3232.226562 167.804688 C 3188.054688 177.566406 3144.816406 146.878906 3102.96875 202.210938 C 3073.210938 329.152344 3036.015625 215.695312 3009.046875 259.40625 C 2982.542969 176.636719 2963.480469 261.730469 2931.398438 331.476562 C 2883.507812 307.765625 2767.269531 303.113281 2714.730469 328.6875 C 2674.742188 302.648438 2634.292969 274.285156 2594.304688 328.6875 C 2554.320312 331.011719 2513.867188 317.992188 2473.882812 328.6875 C 2438.546875 358.449219 2401.347656 325.898438 2366.011719 329.617188 C 2313.007812 312.414062 2280.925781 298.929688 2228.386719 280.792969 C 2173.519531 366.816406 2114.472656 319.390625 2057.746094 278.003906 C 2005.207031 256.152344 1954.992188 280.792969 1905.707031 242.667969 C 1869.4375 248.710938 1827.128906 224.996094 1784.816406 231.972656 C 1742.507812 188.261719 1700.660156 244.527344 1665.324219 248.710938 C 1628.125 284.515625 1590.464844 257.546875 1553.734375 261.265625 C 1503.984375 205.46875 1478.875 327.292969 1423.546875 307.765625 C 1369.609375 349.613281 1310.097656 304.507812 1263.136719 267.773438 C 1204.550781 239.410156 1192.460938 241.269531 1128.296875 189.65625 C 1065.53125 245.921875 1007.875 193.84375 944.175781 134.324219 C 911.628906 122.234375 878.152344 169.664062 846.535156 118.980469 C 817.242188 105.03125 794.460938 52.023438 764.703125 82.246094 C 722.855469 90.617188 674.964844 138.972656 627.074219 76.203125 C 579.183594 97.589844 531.761719 67.832031 490.84375 103.636719 C 446.207031 123.628906 399.710938 101.777344 351.820312 127.816406 C 303.929688 133.394531 255.109375 144.089844 205.824219 134.324219 C 156.539062 142.695312 106.789062 132 57.039062 149.203125 C 7.753906 141.765625 -41.53125 100.378906 -89.886719 125.488281 C -89.886719 126.417969 -89.886719 162.222656 -89.886719 240.339844 L -89.886719 241.269531 C -48.039062 321.25 -6.195312 266.378906 35.1875 241.269531 C 79.359375 242.199219 128.644531 189.191406 171.882812 239.875 C 221.632812 258.941406 260.226562 274.285156 311.835938 263.125 C 374.140625 207.792969 430.398438 305.4375 484.800781 294.746094 C 539.199219 349.613281 592.667969 327.292969 649.394531 354.726562 C 696.355469 388.207031 736.339844 380.765625 775.863281 374.257812 C 815.382812 296.140625 854.441406 404.480469 900.46875 356.585938 C 941.386719 325.898438 998.578125 289.628906 1054.371094 348.21875 C 1110.164062 288.234375 1164.566406 363.5625 1200.367188 377.511719 C 1270.574219 387.277344 1337.066406 404.015625 1414.246094 401.226562 C 1475.15625 399.367188 1526.765625 470.042969 1577.910156 476.089844 C 1629.058594 514.683594 1680.203125 592.335938 1739.25 555.601562 C 1777.84375 554.207031 1819.222656 578.386719 1861.070312 563.972656 C 1902.917969 576.058594 1944.761719 564.902344 1983.820312 560.25 C 2033.570312 581.175781 2080.53125 532.816406 2127.027344 565.832031 C 2173.984375 524.910156 2220.480469 551.882812 2269.300781 580.710938 C 2307.429688 553.277344 2334.394531 671.847656 2363.6875 599.308594 C 2405.070312 535.140625 2432.964844 617.910156 2478.996094 630 C 2548.742188 576.527344 2538.046875 591.871094 2586.867188 557.925781 C 2624.0625 472.367188 2662.191406 538.398438 2707.753906 537.464844 C 2745.882812 554.207031 2784.007812 541.1875 2822.136719 537.933594 C 2860.261719 504.453125 2898.386719 559.785156 2936.515625 537.464844 C 3015.09375 525.378906 3059.261719 507.707031 3117.847656 491.898438 C 3148.535156 459.8125 3176.898438 451.910156 3208.046875 422.617188 C 3239.199219 375.1875 3273.605469 432.378906 3315.453125 382.625 C 3381.011719 379.371094 3447.5 429.125 3511.199219 366.816406 C 3553.976562 355.65625 3589.3125 345.429688 3634.414062 355.65625 C 3681.839844 314.738281 3729.265625 408.664062 3776.691406 355.65625 C 3824.117188 369.140625 3871.542969 321.714844 3918.964844 355.191406 C 3960.347656 340.777344 3998.007812 329.617188 4035.207031 362.632812 C 4072.402344 371 4109.597656 400.296875 4149.585938 378.441406 C 4177.945312 371 4199.800781 323.109375 4227.230469 395.644531 C 4266.753906 401.226562 4304.878906 427.265625 4343.9375 399.832031 C 4367.648438 431.914062 4410.890625 454.699219 4432.742188 427.265625 C 4464.824219 397.507812 4480.632812 475.160156 4511.320312 502.128906 C 4542.472656 583.035156 4585.714844 540.722656 4629.882812 520.261719 C 4674.519531 488.644531 4720.085938 487.714844 4756.816406 519.332031 C 4855.855469 583.964844 4953.496094 576.992188 5048.34375 611.863281 C 5143.195312 598.378906 5095.769531 718.8125 5182.71875 716.019531 L 5182.71875 588.613281 C 5182.71875 588.613281 5164.585938 464.929688 5132.96875 491.898438 C 5095.304688 479.34375 5059.039062 475.160156 5013.472656 440.75 C 4958.609375 410.0625 4896.304688 514.21875 4842.835938 438.425781 C 4791.691406 449.585938 4749.378906 403.085938 4705.671875 348.683594 C 4661.96875 338.453125 4616.867188 284.515625 4559.675781 280.792969 C 4516.902344 214.765625 4473.195312 242.664062 4431.347656 267.773438 C 4387.644531 301.71875 4371.371094 153.855469 4333.242188 179.429688 C 4284.886719 161.757812 4235.136719 74.804688 4183.0625 114.328125 C 4132.847656 96.660156 4079.375 64.578125 4022.652344 100.378906 Z M 4022.652344 100.378906"/></svg>